<svg id="Layer_1" data-name="Layer 1" xmlns="http://www.w3.org/2000/svg" xmlns:xlink="http://www.w3.org/1999/xlink" viewBox="0 0 32 32"><defs><style>.cls-1{fill:url(#New_Gradient_Swatch_copy);}</style><linearGradient id="New_Gradient_Swatch_copy" x1="1.99" y1="16" x2="30.01" y2="16" gradientUnits="userSpaceOnUse"><stop offset="0" stop-color="#cc1d63"/><stop offset="0.52" stop-color="#da3546"/><stop offset="1" stop-color="#f27e2e"/></linearGradient></defs><path class="cls-1" d="M10.58,23.61v1.74a1.14,1.14,0,0,1-.66,1.13,1.1,1.1,0,0,1-1.34-.23c-2-1.9-4-3.79-6.05-5.71a1.64,1.64,0,0,1,0-2.4c2-1.94,4.06-3.85,6.1-5.76a1.17,1.17,0,0,1,2,.9V15h7.54a2.32,2.32,0,0,1,2.55,2.51c0,1.16,0,2.31,0,3.47a2.32,2.32,0,0,1-2.59,2.59H10.58ZM23.42,7.72c1.59,1.5,3.17,3,4.78,4.5.41.37.34.57,0,.9-1.63,1.52-3.24,3.06-4.87,4.58a4.2,4.2,0,0,1-.38.3c-.24-2.09-.58-2.55-1.61-2.43,0,1,.09,1.93.1,2.89a1.32,1.32,0,0,0,.68,1.37,1.29,1.29,0,0,0,1.53-.42l5.66-5.33a1.75,1.75,0,0,0,0-2.8c-1.92-1.83-3.87-3.64-5.79-5.46a1.22,1.22,0,0,0-1.39-.34,1.2,1.2,0,0,0-.72,1.28c0,.52,0,1,0,1.61H13.68a2.15,2.15,0,0,0-2.27,1.94,26.55,26.55,0,0,0,0,3.34.69.69,0,0,0,.81.71c.48,0,.62-.37.62-.81,0-.82,0-1.63,0-2.44,0-1.07.21-1.28,1.27-1.29h6.87c1.37,0,1.93-.54,1.93-1.89v-.7Z"/></svg>