<svg id="Layer_1" data-name="Layer 1" xmlns="http://www.w3.org/2000/svg" xmlns:xlink="http://www.w3.org/1999/xlink" viewBox="0 0 32 32"><defs><style>.cls-1{fill:url(#New_Gradient_Swatch_copy);}</style><linearGradient id="New_Gradient_Swatch_copy" x1="5.39" y1="16.02" x2="26.59" y2="16.02" gradientUnits="userSpaceOnUse"><stop offset="0" stop-color="#cc1d63"/><stop offset="0.52" stop-color="#da3546"/><stop offset="1" stop-color="#f27e2e"/></linearGradient></defs><path class="cls-1" d="M5.39,16A10.6,10.6,0,1,1,16,26.62,10.59,10.59,0,0,1,5.39,16Zm6.27,5.17a1.07,1.07,0,0,0,1.61,1l2.52-1.39a.38.38,0,0,1,.41,0l2.5,1.42a1.06,1.06,0,0,0,1.58-1.11c-.17-1-.33-2-.5-3.06a.37.37,0,0,1,.13-.37L22,15.56a1,1,0,0,0,.27-1.1,1,1,0,0,0-.89-.73c-.94-.15-1.87-.3-2.82-.43a.38.38,0,0,1-.32-.25c-.4-.88-.81-1.76-1.2-2.64a1.09,1.09,0,0,0-1-.75,1.07,1.07,0,0,0-1,.73c-.41.89-.84,1.78-1.25,2.67a.37.37,0,0,1-.31.24l-2.74.42A1.08,1.08,0,0,0,10,15.63c.69.68,1.36,1.36,2,2a.37.37,0,0,1,.11.29c-.07.53-.16,1.05-.25,1.57S11.74,20.7,11.66,21.19Z"/></svg>