<svg id="Layer_1" data-name="Layer 1" xmlns="http://www.w3.org/2000/svg" viewBox="0 0 31.96 31.96"><path d="M32,10.49A1.48,1.48,0,0,1,30,11.55a1.26,1.26,0,0,1-.94-1.09,3.44,3.44,0,0,1,0-.56c0-1.81,0-3.63,0-5.45A1.35,1.35,0,0,0,28,3a2.81,2.81,0,0,0-.65,0H21.87a1.38,1.38,0,0,1-1.51-1.65A1.39,1.39,0,0,1,21.48,0h6.68a.85.85,0,0,0,.17.06,4.18,4.18,0,0,1,3.48,3.12c.06.21.1.42.15.63Z"/><path d="M32,28.15c-.05.21-.09.42-.15.63A4.23,4.23,0,0,1,27.71,32c-2,0-3.91,0-5.86,0a1.46,1.46,0,1,1,0-2.91c1.35,0,2.7,0,4.05,0h1.66a1.37,1.37,0,0,0,1.51-1.54c0-1.84,0-3.68,0-5.52a2.86,2.86,0,0,1,.06-.65,1.32,1.32,0,0,1,1.28-1,1.37,1.37,0,0,1,1.46.87c0,.09.07.18.1.26Z"/><path d="M10.49,0a1.49,1.49,0,0,1,1.07,1.94,1.29,1.29,0,0,1-1.06.93,3.57,3.57,0,0,1-.56,0H4.48A1.35,1.35,0,0,0,3,3.9a2.35,2.35,0,0,0-.06.65c0,1.8,0,3.6,0,5.4a2.62,2.62,0,0,1-.07.68,1.39,1.39,0,0,1-1.62,1A1.35,1.35,0,0,1,0,10.21C0,8.58,0,7,0,5.31A8.89,8.89,0,0,1,.18,3.18,4.07,4.07,0,0,1,3.64.06.85.85,0,0,0,3.81,0Z"/><path d="M5.81,10.16c0-.93,0-1.87,0-2.81A1.39,1.39,0,0,1,7.36,5.81H13a1.4,1.4,0,0,1,1.54,1.53V13A1.4,1.4,0,0,1,13,14.53H7.31A1.38,1.38,0,0,1,5.82,13C5.81,12.05,5.81,11.11,5.81,10.16ZM8.74,11.6H11.6V8.75H8.74Z"/><path d="M26.16,10.19V13a1.39,1.39,0,0,1-1.53,1.53H19A1.39,1.39,0,0,1,17.43,13c0-1.91,0-3.81,0-5.71a1.37,1.37,0,0,1,1.49-1.5h5.71a1.37,1.37,0,0,1,1.51,1.51C26.16,8.28,26.16,9.23,26.16,10.19ZM20.37,8.73v2.86h2.85V8.73Z"/><path d="M5.81,21.77c0-.94,0-1.87,0-2.81a1.38,1.38,0,0,1,1.52-1.53H13a1.39,1.39,0,0,1,1.52,1.51c0,1.9,0,3.8,0,5.71A1.38,1.38,0,0,1,13,26.15H7.36a1.39,1.39,0,0,1-1.54-1.54C5.81,23.66,5.81,22.71,5.81,21.77Zm5.8-1.41H8.75v2.85h2.86Z"/><path d="M7.15,32H4.4A4.28,4.28,0,0,1,0,27.56c0-1.9,0-3.81,0-5.71A1.43,1.43,0,0,1,2,20.41a1.25,1.25,0,0,1,.93,1.09,3.57,3.57,0,0,1,0,.56c0,1.82,0,3.64,0,5.46A1.34,1.34,0,0,0,4,29a2.81,2.81,0,0,0,.65.05h5.49a1.37,1.37,0,0,1,1.5,1.09A1.42,1.42,0,0,1,10.17,32Z"/><path d="M22.52,26.15c-.71,0-1.43,0-2.15,0a1.44,1.44,0,0,1-1.39-2,1.31,1.31,0,0,1,1-.86l.18,0c1.58,0,3.16,0,4.74,0a1.3,1.3,0,0,1,1.26,1.48,1.37,1.37,0,0,1-1.38,1.4H22.52Z"/><path d="M20.37,19.61a7.88,7.88,0,0,1-.08,1.09,1.32,1.32,0,0,1-1.45,1.09,1.28,1.28,0,0,1-1.35-1.13,10.7,10.7,0,0,1,0-2,1.34,1.34,0,0,1,1.48-1.27,1.36,1.36,0,0,1,1.4,1.37c0,.27,0,.54,0,.81Z"/><path d="M24,20.36a9.63,9.63,0,0,1-1.08-.07,1.34,1.34,0,0,1-1.09-1.43,1.31,1.31,0,0,1,1.11-1.38,11,11,0,0,1,2,0,1.33,1.33,0,0,1,1.26,1.49,1.37,1.37,0,0,1-1.38,1.4c-.27,0-.54,0-.81,0Z"/></svg>