<svg id="Layer_1" data-name="Layer 1" xmlns="http://www.w3.org/2000/svg" viewBox="0 0 100 100"><path d="M50.08,46.09H89.57a4.65,4.65,0,0,1,4.78,6,4.41,4.41,0,0,1-4.08,3.47,8.75,8.75,0,0,1-.89,0H10.81c-2.79,0-4.51-1.27-5-3.68A4.61,4.61,0,0,1,10.5,46.1q14,0,28,0Z"/><path d="M15.15,15.92v1.19c0,4.3,0,8.6,0,12.91A4.59,4.59,0,0,1,10.37,35a4.57,4.57,0,0,1-4.74-4.88c0-5.26,0-10.52,0-15.78A7.78,7.78,0,0,1,13.49,6.4c5.29,0,10.58,0,15.88,0a4.57,4.57,0,0,1,4.81,4.8,4.57,4.57,0,0,1-4.8,4.72c-4.33,0-8.67,0-13,0Z"/><path d="M85,15.92H70.82A4.44,4.44,0,0,1,66.34,13,4.7,4.7,0,0,1,70.87,6.4c5.26,0,10.51,0,15.77,0a7.77,7.77,0,0,1,7.91,7.92q0,7.89,0,15.77a4.76,4.76,0,1,1-9.52,0c0-4.33,0-8.66,0-13Z"/><path d="M15.15,85.8c4.81,0,9.47,0,14.12,0a4.65,4.65,0,0,1,4.75,6,4.32,4.32,0,0,1-4.23,3.52c-5.62,0-11.24.1-16.86,0a7.62,7.62,0,0,1-7.27-7.41c-.08-5.52-.06-11,0-16.56a4.52,4.52,0,0,1,4.76-4.54,4.51,4.51,0,0,1,4.74,4.55c0,4.43,0,8.86,0,13.29Z"/><path d="M85,85.79c0-4.82,0-9.48,0-14.14a4.65,4.65,0,0,1,6-4.72,4.33,4.33,0,0,1,3.5,4.25c0,5.58.09,11.17,0,16.75a7.64,7.64,0,0,1-7.44,7.36c-5.52.08-11,.06-16.56,0a4.75,4.75,0,0,1,0-9.49c4.43,0,8.86,0,13.29,0Z"/></svg>