<svg xmlns="http://www.w3.org/2000/svg" xmlns:xlink="http://www.w3.org/1999/xlink" viewBox="0 0 331.5 411.58"><defs><style>.cls-1{mask:url(#mask);filter:url(#luminosity-noclip-28);}.cls-10,.cls-12,.cls-14,.cls-16,.cls-18,.cls-2,.cls-20,.cls-22,.cls-24,.cls-26,.cls-28,.cls-30,.cls-32,.cls-34,.cls-36,.cls-38,.cls-4,.cls-40,.cls-42,.cls-44,.cls-46,.cls-48,.cls-50,.cls-52,.cls-54,.cls-59,.cls-6,.cls-61,.cls-63,.cls-8{mix-blend-mode:multiply;}.cls-2{fill:url(#radial-gradient);}.cls-3{mask:url(#mask-2);filter:url(#luminosity-noclip-33);}.cls-4{fill:url(#linear-gradient);}.cls-5{mask:url(#mask-3);filter:url(#luminosity-noclip-34);}.cls-6{fill:url(#linear-gradient-2);}.cls-7{mask:url(#mask-4);filter:url(#luminosity-noclip-35);}.cls-8{fill:url(#linear-gradient-3);}.cls-9{mask:url(#mask-5);filter:url(#luminosity-noclip-36);}.cls-10{fill:url(#linear-gradient-4);}.cls-11{mask:url(#mask-6);filter:url(#luminosity-noclip-37);}.cls-12{fill:url(#linear-gradient-5);}.cls-13{mask:url(#mask-7);filter:url(#luminosity-noclip-29);}.cls-14{fill:url(#radial-gradient-2);}.cls-15{mask:url(#mask-8);filter:url(#luminosity-noclip-38);}.cls-16{fill:url(#linear-gradient-6);}.cls-17{mask:url(#mask-9);filter:url(#luminosity-noclip-39);}.cls-18{fill:url(#linear-gradient-7);}.cls-19{mask:url(#mask-10);filter:url(#luminosity-noclip-40);}.cls-20{fill:url(#linear-gradient-8);}.cls-21{mask:url(#mask-11);filter:url(#luminosity-noclip-41);}.cls-22{fill:url(#linear-gradient-9);}.cls-23{mask:url(#mask-12);filter:url(#luminosity-noclip-42);}.cls-24{fill:url(#linear-gradient-10);}.cls-25{mask:url(#mask-13);filter:url(#luminosity-noclip-43);}.cls-26{fill:url(#linear-gradient-11);}.cls-27{mask:url(#mask-14);filter:url(#luminosity-noclip-44);}.cls-28{fill:url(#linear-gradient-12);}.cls-29{mask:url(#mask-15);filter:url(#luminosity-noclip-45);}.cls-30{fill:url(#linear-gradient-13);}.cls-31{mask:url(#mask-16);filter:url(#luminosity-noclip-46);}.cls-32{fill:url(#linear-gradient-14);}.cls-33{mask:url(#mask-17);filter:url(#luminosity-noclip-47);}.cls-34{fill:url(#linear-gradient-15);}.cls-35{mask:url(#mask-18);filter:url(#luminosity-noclip-30);}.cls-36{fill:url(#linear-gradient-16);}.cls-37{mask:url(#mask-19);filter:url(#luminosity-noclip-48);}.cls-38{fill:url(#linear-gradient-17);}.cls-39{mask:url(#mask-20);filter:url(#luminosity-noclip-49);}.cls-40{fill:url(#linear-gradient-18);}.cls-41{mask:url(#mask-21);filter:url(#luminosity-noclip-50);}.cls-42{fill:url(#linear-gradient-19);}.cls-43{mask:url(#mask-22);filter:url(#luminosity-noclip-51);}.cls-44{fill:url(#linear-gradient-20);}.cls-45{mask:url(#mask-23);filter:url(#luminosity-noclip-52);}.cls-46{fill:url(#linear-gradient-21);}.cls-47{mask:url(#mask-24);filter:url(#luminosity-noclip-53);}.cls-48{fill:url(#linear-gradient-22);}.cls-49{mask:url(#mask-25);filter:url(#luminosity-noclip-54);}.cls-50{fill:url(#linear-gradient-23);}.cls-51{mask:url(#mask-26);filter:url(#luminosity-noclip-31);}.cls-52{fill:url(#linear-gradient-24);}.cls-53{mask:url(#mask-27);filter:url(#luminosity-noclip-32);}.cls-54{fill:url(#linear-gradient-25);}.cls-55{isolation:isolate;}.cls-56{fill:url(#radial-gradient-3);}.cls-107,.cls-125,.cls-126,.cls-127,.cls-128,.cls-129,.cls-130,.cls-131,.cls-132,.cls-133,.cls-134,.cls-135,.cls-136,.cls-137,.cls-138,.cls-139,.cls-140,.cls-141,.cls-142,.cls-143,.cls-144,.cls-145,.cls-146,.cls-147,.cls-148,.cls-149,.cls-150,.cls-151,.cls-152,.cls-153,.cls-154,.cls-155,.cls-156,.cls-157,.cls-158,.cls-159,.cls-160,.cls-161,.cls-162,.cls-163,.cls-164,.cls-165,.cls-166,.cls-167,.cls-168,.cls-169,.cls-170,.cls-171,.cls-172,.cls-173,.cls-174,.cls-175,.cls-176,.cls-177,.cls-57,.cls-62,.cls-76,.cls-79,.cls-84,.cls-87,.cls-88,.cls-89{mix-blend-mode:screen;}.cls-57{fill:url(#radial-gradient-4);}.cls-58{mask:url(#mask-28);}.cls-59{fill:url(#radial-gradient-5);}.cls-60{mask:url(#mask-29);}.cls-61{fill:url(#radial-gradient-6);}.cls-62{fill:url(#radial-gradient-7);}.cls-63{opacity:0.41;}.cls-64{mask:url(#mask-30);}.cls-65{fill:url(#linear-gradient-26);}.cls-66{mask:url(#mask-31);}.cls-67{fill:url(#linear-gradient-27);}.cls-68{mask:url(#mask-32);}.cls-69{fill:url(#linear-gradient-28);}.cls-70{mask:url(#mask-33);}.cls-71{fill:url(#linear-gradient-29);}.cls-72{mask:url(#mask-34);}.cls-73{fill:url(#linear-gradient-30);}.cls-74{mask:url(#mask-35);}.cls-75{fill:url(#linear-gradient-31);}.cls-77{mask:url(#mask-36);}.cls-78{fill:url(#linear-gradient-32);}.cls-79{opacity:0.48;}.cls-80{mask:url(#mask-37);}.cls-81{fill:url(#linear-gradient-33);}.cls-82{mask:url(#mask-38);}.cls-83{fill:url(#linear-gradient-34);}.cls-84{opacity:0.3;}.cls-85{fill:#fff;}.cls-86{mix-blend-mode:color-dodge;fill:url(#radial-gradient-8);}.cls-87{fill:url(#radial-gradient-9);}.cls-88{fill:url(#radial-gradient-10);}.cls-89{opacity:0.66;}.cls-90{mask:url(#mask-39);}.cls-91{fill:url(#linear-gradient-35);}.cls-92{mask:url(#mask-40);}.cls-93{fill:url(#linear-gradient-36);}.cls-94{mask:url(#mask-41);}.cls-95{fill:url(#linear-gradient-37);}.cls-96{mask:url(#mask-42);}.cls-97{fill:url(#linear-gradient-38);}.cls-98{mask:url(#mask-43);}.cls-99{fill:url(#linear-gradient-39);}.cls-100{mask:url(#mask-44);}.cls-101{fill:url(#linear-gradient-40);}.cls-102{mask:url(#mask-45);}.cls-103{fill:url(#linear-gradient-41);}.cls-104{mask:url(#mask-46);}.cls-105{fill:url(#linear-gradient-42);}.cls-106{opacity:0.32;}.cls-107{opacity:0.78;}.cls-108{mask:url(#mask-47);}.cls-109{fill:url(#linear-gradient-43);}.cls-110{mask:url(#mask-48);}.cls-111{fill:url(#linear-gradient-44);}.cls-112{mask:url(#mask-49);}.cls-113{fill:url(#linear-gradient-45);}.cls-114{mask:url(#mask-50);}.cls-115{fill:url(#linear-gradient-46);}.cls-116{mask:url(#mask-51);}.cls-117{fill:url(#linear-gradient-47);}.cls-118{mask:url(#mask-52);}.cls-119{fill:url(#linear-gradient-48);}.cls-120{mask:url(#mask-53);}.cls-121{fill:url(#linear-gradient-49);}.cls-122{mask:url(#mask-54);}.cls-123{fill:url(#linear-gradient-50);}.cls-124{fill:#d0d0d0;}.cls-125{fill:url(#radial-gradient-11);}.cls-126{fill:url(#radial-gradient-12);}.cls-127,.cls-128,.cls-129,.cls-130,.cls-131,.cls-136,.cls-137,.cls-138,.cls-139,.cls-140,.cls-141,.cls-146,.cls-147,.cls-148,.cls-149,.cls-150,.cls-151,.cls-156,.cls-157,.cls-158,.cls-159,.cls-160,.cls-161,.cls-162,.cls-163,.cls-164,.cls-165,.cls-166,.cls-171,.cls-176,.cls-177{opacity:0.57;}.cls-127{fill:url(#radial-gradient-13);}.cls-128{fill:url(#radial-gradient-14);}.cls-129{fill:url(#radial-gradient-15);}.cls-130{fill:url(#radial-gradient-16);}.cls-131{fill:url(#radial-gradient-17);}.cls-132,.cls-133,.cls-134,.cls-135,.cls-142,.cls-143,.cls-144,.cls-145,.cls-152,.cls-153,.cls-154,.cls-155,.cls-167,.cls-168,.cls-169,.cls-170{opacity:0.88;}.cls-132{fill:url(#radial-gradient-18);}.cls-133{fill:url(#radial-gradient-19);}.cls-134{fill:url(#radial-gradient-20);}.cls-135{fill:url(#radial-gradient-21);}.cls-136{fill:url(#radial-gradient-22);}.cls-137{fill:url(#radial-gradient-23);}.cls-138{fill:url(#radial-gradient-24);}.cls-139{fill:url(#radial-gradient-25);}.cls-140{fill:url(#radial-gradient-26);}.cls-141{fill:url(#radial-gradient-27);}.cls-142{fill:url(#radial-gradient-28);}.cls-143{fill:url(#radial-gradient-29);}.cls-144{fill:url(#radial-gradient-30);}.cls-145{fill:url(#radial-gradient-31);}.cls-146{fill:url(#radial-gradient-32);}.cls-147{fill:url(#radial-gradient-33);}.cls-148{fill:url(#radial-gradient-34);}.cls-149{fill:url(#radial-gradient-35);}.cls-150{fill:url(#radial-gradient-36);}.cls-151{fill:url(#radial-gradient-37);}.cls-152{fill:url(#radial-gradient-38);}.cls-153{fill:url(#radial-gradient-39);}.cls-154{fill:url(#radial-gradient-40);}.cls-155{fill:url(#radial-gradient-41);}.cls-156{fill:url(#radial-gradient-42);}.cls-157{fill:url(#radial-gradient-43);}.cls-158{fill:url(#radial-gradient-44);}.cls-159{fill:url(#radial-gradient-45);}.cls-160{fill:url(#radial-gradient-46);}.cls-161{fill:url(#radial-gradient-47);}.cls-162{fill:url(#radial-gradient-48);}.cls-163{fill:url(#radial-gradient-49);}.cls-164{fill:url(#radial-gradient-50);}.cls-165{fill:url(#radial-gradient-51);}.cls-166{fill:url(#radial-gradient-52);}.cls-167{fill:url(#radial-gradient-53);}.cls-168{fill:url(#radial-gradient-54);}.cls-169{fill:url(#radial-gradient-55);}.cls-170{fill:url(#radial-gradient-56);}.cls-171{fill:url(#radial-gradient-57);}.cls-172{fill:url(#radial-gradient-58);}.cls-173{fill:url(#radial-gradient-59);}.cls-174{fill:url(#radial-gradient-60);}.cls-175{fill:url(#radial-gradient-61);}.cls-176{fill:url(#radial-gradient-62);}.cls-177{fill:url(#radial-gradient-63);}.cls-178{filter:url(#luminosity-noclip-27);}.cls-179{filter:url(#luminosity-noclip-26);}.cls-180{filter:url(#luminosity-noclip-25);}.cls-181{filter:url(#luminosity-noclip-24);}.cls-182{filter:url(#luminosity-noclip-23);}.cls-183{filter:url(#luminosity-noclip-22);}.cls-184{filter:url(#luminosity-noclip-21);}.cls-185{filter:url(#luminosity-noclip-20);}.cls-186{filter:url(#luminosity-noclip-19);}.cls-187{filter:url(#luminosity-noclip-18);}.cls-188{filter:url(#luminosity-noclip-17);}.cls-189{filter:url(#luminosity-noclip-16);}.cls-190{filter:url(#luminosity-noclip-15);}.cls-191{filter:url(#luminosity-noclip-14);}.cls-192{filter:url(#luminosity-noclip-13);}.cls-193{filter:url(#luminosity-noclip-12);}.cls-194{filter:url(#luminosity-noclip-11);}.cls-195{filter:url(#luminosity-noclip-10);}.cls-196{filter:url(#luminosity-noclip-9);}.cls-197{filter:url(#luminosity-noclip-8);}.cls-198{filter:url(#luminosity-noclip-7);}.cls-199{filter:url(#luminosity-noclip-6);}.cls-200{filter:url(#luminosity-noclip-5);}.cls-201{filter:url(#luminosity-noclip-4);}.cls-202{filter:url(#luminosity-noclip-3);}.cls-203{filter:url(#luminosity-noclip-2);}.cls-204{filter:url(#luminosity-noclip);}</style><filter id="luminosity-noclip" x="107.49" y="-8448.58" width="225.74" height="32766" filterUnits="userSpaceOnUse" color-interpolation-filters="sRGB"><feFlood flood-color="#fff" result="bg"/><feBlend in="SourceGraphic" in2="bg"/></filter><mask id="mask" x="107.49" y="-8448.58" width="225.74" height="32766" maskUnits="userSpaceOnUse"><g class="cls-204"/></mask><radialGradient id="radial-gradient" cx="368.78" cy="20.44" r="261.39" gradientTransform="translate(0.17 -1.24)" gradientUnits="userSpaceOnUse"><stop offset="0" stop-color="#fff"/><stop offset="0.24" stop-color="#fdfdfd"/><stop offset="0.37" stop-color="#f4f4f4"/><stop offset="0.48" stop-color="#e6e6e6"/><stop offset="0.58" stop-color="#d2d2d2"/><stop offset="0.67" stop-color="#b8b8b8"/><stop offset="0.75" stop-color="#999"/><stop offset="0.83" stop-color="#737373"/><stop offset="0.9" stop-color="#474747"/><stop offset="0.97" stop-color="#171717"/><stop offset="1"/></radialGradient><filter id="luminosity-noclip-2" x="156.49" y="-8448.58" width="72.42" height="32766" filterUnits="userSpaceOnUse" color-interpolation-filters="sRGB"><feFlood flood-color="#fff" result="bg"/><feBlend in="SourceGraphic" in2="bg"/></filter><mask id="mask-2" x="156.49" y="-8448.58" width="72.42" height="32766" maskUnits="userSpaceOnUse"><g class="cls-203"/></mask><linearGradient id="linear-gradient" x1="161.3" y1="169.94" x2="224.1" y2="133.68" gradientUnits="userSpaceOnUse"><stop offset="0"/><stop offset="0.19" stop-color="#414141"/><stop offset="0.41" stop-color="#838383"/><stop offset="0.61" stop-color="#b9b9b9"/><stop offset="0.78" stop-color="#dfdfdf"/><stop offset="0.91" stop-color="#f6f6f6"/><stop offset="1" stop-color="#fff"/></linearGradient><filter id="luminosity-noclip-3" x="253.05" y="-8448.58" width="64.02" height="32766" filterUnits="userSpaceOnUse" color-interpolation-filters="sRGB"><feFlood flood-color="#fff" result="bg"/><feBlend in="SourceGraphic" in2="bg"/></filter><mask id="mask-3" x="253.05" y="-8448.58" width="64.02" height="32766" maskUnits="userSpaceOnUse"><g class="cls-202"/></mask><linearGradient id="linear-gradient-2" x1="257.31" y1="264.49" x2="312.82" y2="232.44" xlink:href="#linear-gradient"/><filter id="luminosity-noclip-4" x="286.96" y="-8448.58" width="46.27" height="32766" filterUnits="userSpaceOnUse" color-interpolation-filters="sRGB"><feFlood flood-color="#fff" result="bg"/><feBlend in="SourceGraphic" in2="bg"/></filter><mask id="mask-4" x="286.96" y="-8448.58" width="46.27" height="32766" maskUnits="userSpaceOnUse"><g class="cls-201"/></mask><linearGradient id="linear-gradient-3" x1="291.37" y1="122.85" x2="350.22" y2="88.88" xlink:href="#linear-gradient"/><filter id="luminosity-noclip-5" x="-1.48" y="-8448.58" width="20.06" height="32766" filterUnits="userSpaceOnUse" color-interpolation-filters="sRGB"><feFlood flood-color="#fff" result="bg"/><feBlend in="SourceGraphic" in2="bg"/></filter><mask id="mask-5" x="-1.48" y="-8448.58" width="20.06" height="32766" maskUnits="userSpaceOnUse"><g class="cls-200"/></mask><linearGradient id="linear-gradient-4" x1="-42.08" y1="114.2" x2="18.58" y2="114.2" gradientUnits="userSpaceOnUse"><stop offset="0"/><stop offset="0.14" stop-color="#040404"/><stop offset="0.26" stop-color="#0f0f0f"/><stop offset="0.39" stop-color="#222"/><stop offset="0.51" stop-color="#3d3d3d"/><stop offset="0.63" stop-color="#5f5f5f"/><stop offset="0.75" stop-color="#898989"/><stop offset="0.86" stop-color="#bbb"/><stop offset="0.98" stop-color="#f3f3f3"/><stop offset="1" stop-color="#fff"/></linearGradient><filter id="luminosity-noclip-6" x="320.89" y="-8448.58" width="12.34" height="32766" filterUnits="userSpaceOnUse" color-interpolation-filters="sRGB"><feFlood flood-color="#fff" result="bg"/><feBlend in="SourceGraphic" in2="bg"/></filter><mask id="mask-6" x="320.89" y="-8448.58" width="12.34" height="32766" maskUnits="userSpaceOnUse"><g class="cls-199"/></mask><linearGradient id="linear-gradient-5" x1="320.89" y1="165.46" x2="375.34" y2="165.46" gradientUnits="userSpaceOnUse"><stop offset="0"/><stop offset="0.09" stop-color="#080808"/><stop offset="0.22" stop-color="#1c1c1c"/><stop offset="0.38" stop-color="#3e3e3e"/><stop offset="0.56" stop-color="#6d6d6d"/><stop offset="0.75" stop-color="#aaa"/><stop offset="0.97" stop-color="#f2f2f2"/><stop offset="1" stop-color="#fff"/></linearGradient><filter id="luminosity-noclip-7" x="-1.48" y="-8448.58" width="102.27" height="32766" filterUnits="userSpaceOnUse" color-interpolation-filters="sRGB"><feFlood flood-color="#fff" result="bg"/><feBlend in="SourceGraphic" in2="bg"/></filter><mask id="mask-7" x="-1.48" y="-8448.58" width="102.27" height="32766" maskUnits="userSpaceOnUse"><g class="cls-198"/></mask><radialGradient id="radial-gradient-2" cx="-160.7" cy="66.66" r="261.36" xlink:href="#radial-gradient"/><filter id="luminosity-noclip-8" x="244.55" y="-8448.58" width="62.81" height="32766" filterUnits="userSpaceOnUse" color-interpolation-filters="sRGB"><feFlood flood-color="#fff" result="bg"/><feBlend in="SourceGraphic" in2="bg"/></filter><mask id="mask-8" x="244.55" y="-8448.58" width="62.81" height="32766" maskUnits="userSpaceOnUse"><g class="cls-197"/></mask><linearGradient id="linear-gradient-6" x1="244.55" y1="342.01" x2="307.36" y2="342.01" xlink:href="#linear-gradient-5"/><filter id="luminosity-noclip-9" x="70.41" y="-8448.58" width="46.63" height="32766" filterUnits="userSpaceOnUse" color-interpolation-filters="sRGB"><feFlood flood-color="#fff" result="bg"/><feBlend in="SourceGraphic" in2="bg"/></filter><mask id="mask-9" x="70.41" y="-8448.58" width="46.63" height="32766" maskUnits="userSpaceOnUse"><g class="cls-196"/></mask><linearGradient id="linear-gradient-7" x1="212.24" y1="254.6" x2="256.1" y2="238.63" gradientTransform="translate(327.89 605.73) rotate(180)" xlink:href="#linear-gradient-5"/><filter id="luminosity-noclip-10" x="255.08" y="-8448.58" width="50.43" height="32766" filterUnits="userSpaceOnUse" color-interpolation-filters="sRGB"><feFlood flood-color="#fff" result="bg"/><feBlend in="SourceGraphic" in2="bg"/></filter><mask id="mask-10" x="255.08" y="-8448.58" width="50.43" height="32766" maskUnits="userSpaceOnUse"><g class="cls-195"/></mask><linearGradient id="linear-gradient-8" x1="23.89" y1="243.76" x2="71.31" y2="226.5" gradientTransform="translate(327.89 605.73) rotate(180)" xlink:href="#linear-gradient-5"/><filter id="luminosity-noclip-11" x="-1.48" y="-8448.58" width="1.79" height="32766" filterUnits="userSpaceOnUse" color-interpolation-filters="sRGB"><feFlood flood-color="#fff" result="bg"/><feBlend in="SourceGraphic" in2="bg"/></filter><mask id="mask-11" x="-1.48" y="-8448.58" width="1.79" height="32766" maskUnits="userSpaceOnUse"><g class="cls-194"/></mask><linearGradient id="linear-gradient-9" x1="326.42" y1="535.21" x2="371.52" y2="518.8" gradientTransform="translate(327.89 605.73) rotate(180)" xlink:href="#linear-gradient-5"/><filter id="luminosity-noclip-12" x="79.27" y="-8448.58" width="44.08" height="32766" filterUnits="userSpaceOnUse" color-interpolation-filters="sRGB"><feFlood flood-color="#fff" result="bg"/><feBlend in="SourceGraphic" in2="bg"/></filter><mask id="mask-12" x="79.27" y="-8448.58" width="44.08" height="32766" maskUnits="userSpaceOnUse"><g class="cls-193"/></mask><linearGradient id="linear-gradient-10" x1="205.85" y1="425.14" x2="247.31" y2="410.05" gradientTransform="translate(327.89 605.73) rotate(180)" xlink:href="#linear-gradient-5"/><filter id="luminosity-noclip-13" x="166.51" y="-8448.58" width="53.81" height="32766" filterUnits="userSpaceOnUse" color-interpolation-filters="sRGB"><feFlood flood-color="#fff" result="bg"/><feBlend in="SourceGraphic" in2="bg"/></filter><mask id="mask-13" x="166.51" y="-8448.58" width="53.81" height="32766" maskUnits="userSpaceOnUse"><g class="cls-192"/></mask><linearGradient id="linear-gradient-11" x1="109.18" y1="333.65" x2="159.78" y2="315.23" gradientTransform="translate(327.89 605.73) rotate(180)" xlink:href="#linear-gradient-5"/><filter id="luminosity-noclip-14" x="220.79" y="-8448.58" width="44.15" height="32766" filterUnits="userSpaceOnUse" color-interpolation-filters="sRGB"><feFlood flood-color="#fff" result="bg"/><feBlend in="SourceGraphic" in2="bg"/></filter><mask id="mask-14" x="220.79" y="-8448.58" width="44.15" height="32766" maskUnits="userSpaceOnUse"><g class="cls-191"/></mask><linearGradient id="linear-gradient-12" x1="64.27" y1="293.96" x2="105.79" y2="278.85" gradientTransform="translate(327.89 605.73) rotate(180)" xlink:href="#linear-gradient-5"/><filter id="luminosity-noclip-15" x="264.65" y="-8448.58" width="56.33" height="32766" filterUnits="userSpaceOnUse" color-interpolation-filters="sRGB"><feFlood flood-color="#fff" result="bg"/><feBlend in="SourceGraphic" in2="bg"/></filter><mask id="mask-15" x="264.65" y="-8448.58" width="56.33" height="32766" maskUnits="userSpaceOnUse"><g class="cls-190"/></mask><linearGradient id="linear-gradient-13" x1="8.59" y1="288.95" x2="61.56" y2="269.67" gradientTransform="translate(327.89 605.73) rotate(180)" xlink:href="#linear-gradient-5"/><filter id="luminosity-noclip-16" x="316.31" y="-8448.58" width="16.93" height="32766" filterUnits="userSpaceOnUse" color-interpolation-filters="sRGB"><feFlood flood-color="#fff" result="bg"/><feBlend in="SourceGraphic" in2="bg"/></filter><mask id="mask-16" x="316.31" y="-8448.58" width="16.93" height="32766" maskUnits="userSpaceOnUse"><g class="cls-189"/></mask><linearGradient id="linear-gradient-14" x1="-26.48" y1="356.37" x2="10.81" y2="342.79" gradientTransform="translate(327.89 605.73) rotate(180)" xlink:href="#linear-gradient-5"/><filter id="luminosity-noclip-17" x="330.15" y="-8448.58" width="3.09" height="32766" filterUnits="userSpaceOnUse" color-interpolation-filters="sRGB"><feFlood flood-color="#fff" result="bg"/><feBlend in="SourceGraphic" in2="bg"/></filter><mask id="mask-17" x="330.15" y="-8448.58" width="3.09" height="32766" maskUnits="userSpaceOnUse"><g class="cls-188"/></mask><linearGradient id="linear-gradient-15" x1="-11.01" y1="388.37" x2="-0.54" y2="447.74" gradientTransform="translate(327.69 606.19) rotate(180)" xlink:href="#linear-gradient-5"/><filter id="luminosity-noclip-18" x="-1.48" y="-8448.58" width="7.64" height="32766" filterUnits="userSpaceOnUse" color-interpolation-filters="sRGB"><feFlood flood-color="#fff" result="bg"/><feBlend in="SourceGraphic" in2="bg"/></filter><mask id="mask-18" x="-1.48" y="-8448.58" width="7.64" height="32766" maskUnits="userSpaceOnUse"><g class="cls-187"/></mask><linearGradient id="linear-gradient-16" x1="-47.36" y1="147.34" x2="7.99" y2="115.38" xlink:href="#linear-gradient"/><filter id="luminosity-noclip-19" x="271.98" y="-8448.58" width="61.26" height="32766" filterUnits="userSpaceOnUse" color-interpolation-filters="sRGB"><feFlood flood-color="#fff" result="bg"/><feBlend in="SourceGraphic" in2="bg"/></filter><mask id="mask-19" x="271.98" y="-8448.58" width="61.26" height="32766" maskUnits="userSpaceOnUse"><g class="cls-186"/></mask><linearGradient id="linear-gradient-17" x1="16.67" y1="533.13" x2="29.27" y2="604.54" gradientTransform="translate(327.69 606.19) rotate(180)" xlink:href="#linear-gradient-5"/><filter id="luminosity-noclip-20" x="210.09" y="-8448.58" width="59.35" height="32766" filterUnits="userSpaceOnUse" color-interpolation-filters="sRGB"><feFlood flood-color="#fff" result="bg"/><feBlend in="SourceGraphic" in2="bg"/></filter><mask id="mask-20" x="210.09" y="-8448.58" width="59.35" height="32766" maskUnits="userSpaceOnUse"><g class="cls-185"/></mask><linearGradient id="linear-gradient-18" x1="82.75" y1="558.7" x2="93.1" y2="617.41" gradientTransform="translate(327.69 606.19) rotate(180)" xlink:href="#linear-gradient-5"/><filter id="luminosity-noclip-21" x="-1.48" y="-8448.58" width="29.08" height="32766" filterUnits="userSpaceOnUse" color-interpolation-filters="sRGB"><feFlood flood-color="#fff" result="bg"/><feBlend in="SourceGraphic" in2="bg"/></filter><mask id="mask-21" x="-1.48" y="-8448.58" width="29.08" height="32766" maskUnits="userSpaceOnUse"><g class="cls-184"/></mask><linearGradient id="linear-gradient-19" x1="312.23" y1="356.25" x2="322.59" y2="415" gradientTransform="translate(327.69 606.19) rotate(180)" xlink:href="#linear-gradient-5"/><filter id="luminosity-noclip-22" x="-1.48" y="-8448.58" width="48.97" height="32766" filterUnits="userSpaceOnUse" color-interpolation-filters="sRGB"><feFlood flood-color="#fff" result="bg"/><feBlend in="SourceGraphic" in2="bg"/></filter><mask id="mask-22" x="-1.48" y="-8448.58" width="48.97" height="32766" maskUnits="userSpaceOnUse"><g class="cls-183"/></mask><linearGradient id="linear-gradient-20" x1="301.18" y1="182.05" x2="311.52" y2="240.71" gradientTransform="translate(327.69 606.19) rotate(180)" xlink:href="#linear-gradient-5"/><filter id="luminosity-noclip-23" x="41.44" y="-8448.58" width="54.42" height="32766" filterUnits="userSpaceOnUse" color-interpolation-filters="sRGB"><feFlood flood-color="#fff" result="bg"/><feBlend in="SourceGraphic" in2="bg"/></filter><mask id="mask-23" x="41.44" y="-8448.58" width="54.42" height="32766" maskUnits="userSpaceOnUse"><g class="cls-182"/></mask><linearGradient id="linear-gradient-21" x1="253.6" y1="159.7" x2="263.18" y2="214.04" gradientTransform="translate(327.69 606.19) rotate(180)" xlink:href="#linear-gradient-5"/><filter id="luminosity-noclip-24" x="71.63" y="-8448.58" width="57.03" height="32766" filterUnits="userSpaceOnUse" color-interpolation-filters="sRGB"><feFlood flood-color="#fff" result="bg"/><feBlend in="SourceGraphic" in2="bg"/></filter><mask id="mask-24" x="71.63" y="-8448.58" width="57.03" height="32766" maskUnits="userSpaceOnUse"><g class="cls-181"/></mask><linearGradient id="linear-gradient-22" x1="222.56" y1="292.87" x2="232.51" y2="349.29" gradientTransform="translate(327.69 606.19) rotate(180)" xlink:href="#linear-gradient-5"/><filter id="luminosity-noclip-25" x="250.5" y="-8448.58" width="53.04" height="32766" filterUnits="userSpaceOnUse" color-interpolation-filters="sRGB"><feFlood flood-color="#fff" result="bg"/><feBlend in="SourceGraphic" in2="bg"/></filter><mask id="mask-25" x="250.5" y="-8448.58" width="53.04" height="32766" maskUnits="userSpaceOnUse"><g class="cls-180"/></mask><linearGradient id="linear-gradient-23" x1="46.04" y1="484.35" x2="55.29" y2="536.81" gradientTransform="translate(327.69 606.19) rotate(180)" xlink:href="#linear-gradient-5"/><filter id="luminosity-noclip-26" x="116.66" y="-8448.58" width="67.82" height="32766" filterUnits="userSpaceOnUse" color-interpolation-filters="sRGB"><feFlood flood-color="#fff" result="bg"/><feBlend in="SourceGraphic" in2="bg"/></filter><mask id="mask-26" x="116.66" y="-8448.58" width="67.82" height="32766" maskUnits="userSpaceOnUse"><g class="cls-179"/></mask><linearGradient id="linear-gradient-24" x1="121.16" y1="146.65" x2="179.98" y2="112.69" xlink:href="#linear-gradient"/><filter id="luminosity-noclip-27" x="61.44" y="-8448.58" width="72.8" height="32766" filterUnits="userSpaceOnUse" color-interpolation-filters="sRGB"><feFlood flood-color="#fff" result="bg"/><feBlend in="SourceGraphic" in2="bg"/></filter><mask id="mask-27" x="61.44" y="-8448.58" width="72.8" height="32766" maskUnits="userSpaceOnUse"><g class="cls-178"/></mask><linearGradient id="linear-gradient-25" x1="66.28" y1="189.82" x2="129.41" y2="153.37" xlink:href="#linear-gradient"/><radialGradient id="radial-gradient-3" cx="-156.92" cy="-392.89" r="1216.79" gradientTransform="translate(0.17 -1.24)" gradientUnits="userSpaceOnUse"><stop offset="0" stop-color="#e2e2e2"/><stop offset="0" stop-color="#d9d9d9"/><stop offset="0.13" stop-color="#a3a3a3"/><stop offset="0.21" stop-color="#888"/><stop offset="0.3" stop-color="#adadad"/><stop offset="0.45" stop-color="#dfdfdf"/><stop offset="0.52" stop-color="#f3f3f3"/><stop offset="0.55" stop-color="#e4e4e4"/><stop offset="0.73" stop-color="#9a9a9a"/><stop offset="0.81" stop-color="#7d7d7d"/><stop offset="0.84" stop-color="#838383"/><stop offset="0.89" stop-color="#929292"/><stop offset="0.94" stop-color="#acacac"/><stop offset="1" stop-color="#d0d0d0"/><stop offset="1" stop-color="#d2d2d2"/><stop offset="1" stop-color="#aaa"/></radialGradient><radialGradient id="radial-gradient-4" cx="419.19" cy="248.77" r="174.63" gradientTransform="translate(0.17 -1.24)" gradientUnits="userSpaceOnUse"><stop offset="0" stop-color="#fff"/><stop offset="0.11" stop-color="#d4d4d4"/><stop offset="0.3" stop-color="#959595"/><stop offset="0.47" stop-color="#5f5f5f"/><stop offset="0.64" stop-color="#363636"/><stop offset="0.78" stop-color="#181818"/><stop offset="0.91" stop-color="#060606"/><stop offset="1"/></radialGradient><filter id="luminosity-noclip-28" x="107.49" y="-240.67" width="225.74" height="519.89" filterUnits="userSpaceOnUse" color-interpolation-filters="sRGB"><feFlood flood-color="#fff" result="bg"/><feBlend in="SourceGraphic" in2="bg"/></filter><mask id="mask-28" x="107.49" y="-240.67" width="225.74" height="519.89" maskUnits="userSpaceOnUse"><g class="cls-1"><path class="cls-2" d="M333.24-240.67C205.75-223.29,107.49-113.54,107.49,19.27s98.26,242.57,225.75,260Z"/></g></mask><radialGradient id="radial-gradient-5" cx="368.78" cy="20.44" r="261.39" gradientTransform="translate(0.17 -1.24)" gradientUnits="userSpaceOnUse"><stop offset="0" stop-color="#aaa"/><stop offset="0.33" stop-color="#acacac"/><stop offset="0.52" stop-color="#b5b5b5"/><stop offset="0.68" stop-color="#c3c3c3"/><stop offset="0.82" stop-color="#d7d7d7"/><stop offset="0.94" stop-color="#f0f0f0"/><stop offset="1" stop-color="#fff"/></radialGradient><filter id="luminosity-noclip-29" x="-1.48" y="-142.54" width="102.27" height="416.41" filterUnits="userSpaceOnUse" color-interpolation-filters="sRGB"><feFlood flood-color="#fff" result="bg"/><feBlend in="SourceGraphic" in2="bg"/></filter><mask id="mask-29" x="-1.48" y="-142.54" width="102.27" height="416.41" maskUnits="userSpaceOnUse"><g class="cls-13"><path class="cls-14" d="M-1.48-142.54V273.87A262.32,262.32,0,0,0,100.79,65.66,262.3,262.3,0,0,0-1.48-142.54Z"/></g></mask><radialGradient id="radial-gradient-6" cx="-160.7" cy="66.66" r="261.36" xlink:href="#radial-gradient-5"/><radialGradient id="radial-gradient-7" cx="470.11" cy="-61.2" r="202.69" gradientTransform="translate(0.17 -1.24)" gradientUnits="userSpaceOnUse"><stop offset="0" stop-color="#e7e7e7"/><stop offset="0.15" stop-color="#b0b0b0"/><stop offset="0.31" stop-color="#7b7b7b"/><stop offset="0.47" stop-color="#4f4f4f"/><stop offset="0.62" stop-color="#2d2d2d"/><stop offset="0.76" stop-color="#141414"/><stop offset="0.89" stop-color="#050505"/><stop offset="1"/></radialGradient><filter id="luminosity-noclip-30" x="-1.48" y="100.05" width="7.64" height="41.59" filterUnits="userSpaceOnUse" color-interpolation-filters="sRGB"><feFlood flood-color="#fff" result="bg"/><feBlend in="SourceGraphic" in2="bg"/></filter><mask id="mask-30" x="-1.48" y="100.05" width="7.64" height="41.59" maskUnits="userSpaceOnUse"><g class="cls-35"><path class="cls-36" d="M-1.48,100.05v41.59a32,32,0,0,0,7.64-20.8A32,32,0,0,0-1.48,100.05Z"/></g></mask><linearGradient id="linear-gradient-26" x1="-47.36" y1="147.34" x2="7.99" y2="115.38" gradientUnits="userSpaceOnUse"><stop offset="0" stop-color="#fff"/><stop offset="0.53" stop-color="#f0f0f0"/><stop offset="1" stop-color="#e7e7e7"/></linearGradient><filter id="luminosity-noclip-31" x="116.66" y="95.61" width="67.82" height="68.13" filterUnits="userSpaceOnUse" color-interpolation-filters="sRGB"><feFlood flood-color="#fff" result="bg"/><feBlend in="SourceGraphic" in2="bg"/></filter><mask id="mask-31" x="116.66" y="95.61" width="67.82" height="68.13" maskUnits="userSpaceOnUse"><g class="cls-51"><path class="cls-52" d="M184.48,129.67a33.91,33.91,0,1,1-33.91-34.06A34,34,0,0,1,184.48,129.67Z"/></g></mask><linearGradient id="linear-gradient-27" x1="121.16" y1="146.65" x2="179.98" y2="112.69" xlink:href="#linear-gradient-26"/><filter id="luminosity-noclip-32" x="61.44" y="135.03" width="72.8" height="73.13" filterUnits="userSpaceOnUse" color-interpolation-filters="sRGB"><feFlood flood-color="#fff" result="bg"/><feBlend in="SourceGraphic" in2="bg"/></filter><mask id="mask-32" x="61.44" y="135.03" width="72.8" height="73.13" maskUnits="userSpaceOnUse"><g class="cls-53"><path class="cls-54" d="M134.25,171.59A36.41,36.41,0,1,1,97.84,135,36.49,36.49,0,0,1,134.25,171.59Z"/></g></mask><linearGradient id="linear-gradient-28" x1="66.28" y1="189.82" x2="129.41" y2="153.37" xlink:href="#linear-gradient-26"/><filter id="luminosity-noclip-33" x="156.49" y="115.44" width="72.42" height="72.74" filterUnits="userSpaceOnUse" color-interpolation-filters="sRGB"><feFlood flood-color="#fff" result="bg"/><feBlend in="SourceGraphic" in2="bg"/></filter><mask id="mask-33" x="156.49" y="115.44" width="72.42" height="72.74" maskUnits="userSpaceOnUse"><g class="cls-3"><path class="cls-4" d="M228.91,151.81a36.21,36.21,0,1,1-36.21-36.37A36.29,36.29,0,0,1,228.91,151.81Z"/></g></mask><linearGradient id="linear-gradient-29" x1="161.3" y1="169.94" x2="224.1" y2="133.68" xlink:href="#linear-gradient-26"/><filter id="luminosity-noclip-34" x="253.05" y="216.31" width="64.02" height="64.31" filterUnits="userSpaceOnUse" color-interpolation-filters="sRGB"><feFlood flood-color="#fff" result="bg"/><feBlend in="SourceGraphic" in2="bg"/></filter><mask id="mask-34" x="253.05" y="216.31" width="64.02" height="64.31" maskUnits="userSpaceOnUse"><g class="cls-5"><path class="cls-6" d="M317.08,248.46a32,32,0,1,1-32-32.15A32.09,32.09,0,0,1,317.08,248.46Z"/></g></mask><linearGradient id="linear-gradient-30" x1="257.31" y1="264.49" x2="312.82" y2="232.44" xlink:href="#linear-gradient-26"/><filter id="luminosity-noclip-35" x="286.96" y="71.95" width="46.27" height="68.17" filterUnits="userSpaceOnUse" color-interpolation-filters="sRGB"><feFlood flood-color="#fff" result="bg"/><feBlend in="SourceGraphic" in2="bg"/></filter><mask id="mask-35" x="286.96" y="71.95" width="46.27" height="68.17" maskUnits="userSpaceOnUse"><g class="cls-7"><path class="cls-8" d="M333.24,74.3A33.58,33.58,0,0,0,320.89,72a34.09,34.09,0,0,0,0,68.17,33.58,33.58,0,0,0,12.35-2.35Z"/></g></mask><linearGradient id="linear-gradient-31" x1="291.37" y1="122.85" x2="350.22" y2="88.88" xlink:href="#linear-gradient-26"/><filter id="luminosity-noclip-36" x="-1.48" y="85.53" width="20.06" height="57.33" filterUnits="userSpaceOnUse" color-interpolation-filters="sRGB"><feFlood flood-color="#fff" result="bg"/><feBlend in="SourceGraphic" in2="bg"/></filter><mask id="mask-36" x="-1.48" y="85.53" width="20.06" height="57.33" maskUnits="userSpaceOnUse"><g class="cls-9"><path class="cls-10" d="M-1.48,85.53v57.33A30.44,30.44,0,0,0,18.58,114.2,30.46,30.46,0,0,0-1.48,85.53Z"/></g></mask><linearGradient id="linear-gradient-32" x1="-42.08" y1="114.2" x2="18.58" y2="114.2" gradientUnits="userSpaceOnUse"><stop offset="0" stop-color="#d2d2d2"/><stop offset="0.44" stop-color="#d6d6d6"/><stop offset="0.85" stop-color="#e1e1e1"/><stop offset="1" stop-color="#e7e7e7"/></linearGradient><filter id="luminosity-noclip-37" x="320.89" y="142.58" width="12.34" height="45.77" filterUnits="userSpaceOnUse" color-interpolation-filters="sRGB"><feFlood flood-color="#fff" result="bg"/><feBlend in="SourceGraphic" in2="bg"/></filter><mask id="mask-37" x="320.89" y="142.58" width="12.34" height="45.77" maskUnits="userSpaceOnUse"><g class="cls-11"><path class="cls-12" d="M333.24,142.58a27.37,27.37,0,0,0,0,45.76Z"/></g></mask><linearGradient id="linear-gradient-33" x1="320.89" y1="165.46" x2="375.34" y2="165.46" gradientUnits="userSpaceOnUse"><stop offset="0"/><stop offset="0.09" stop-color="#080808"/><stop offset="0.23" stop-color="#1c1c1c"/><stop offset="0.4" stop-color="#3e3e3e"/><stop offset="0.6" stop-color="#6d6d6d"/><stop offset="0.8" stop-color="#a9a9a9"/><stop offset="1" stop-color="#e7e7e7"/></linearGradient><filter id="luminosity-noclip-38" x="244.55" y="310.46" width="62.81" height="63.09" filterUnits="userSpaceOnUse" color-interpolation-filters="sRGB"><feFlood flood-color="#fff" result="bg"/><feBlend in="SourceGraphic" in2="bg"/></filter><mask id="mask-38" x="244.55" y="310.46" width="62.81" height="63.09" maskUnits="userSpaceOnUse"><g class="cls-15"><path class="cls-16" d="M307.36,342A31.41,31.41,0,1,1,276,310.46,31.47,31.47,0,0,1,307.36,342Z"/></g></mask><linearGradient id="linear-gradient-34" x1="244.55" y1="342.01" x2="307.36" y2="342.01" xlink:href="#linear-gradient-33"/><radialGradient id="radial-gradient-8" cx="34.36" cy="-21.03" r="28.5" gradientTransform="translate(0.17 -1.24)" gradientUnits="userSpaceOnUse"><stop offset="0" stop-color="#fff"/><stop offset="0.04" stop-color="#dadada"/><stop offset="0.1" stop-color="#adadad"/><stop offset="0.16" stop-color="#838383"/><stop offset="0.23" stop-color="#606060"/><stop offset="0.3" stop-color="#424242"/><stop offset="0.39" stop-color="#2a2a2a"/><stop offset="0.48" stop-color="#171717"/><stop offset="0.58" stop-color="#0a0a0a"/><stop offset="0.72" stop-color="#020202"/><stop offset="1"/></radialGradient><radialGradient id="radial-gradient-9" cx="277.54" cy="-114.84" r="179.35" gradientTransform="translate(0.17 -1.24)" gradientUnits="userSpaceOnUse"><stop offset="0" stop-color="#aaa"/><stop offset="1"/></radialGradient><radialGradient id="radial-gradient-10" cx="-55.68" cy="-217.47" r="445.8" gradientTransform="translate(0.17 -14.73)" gradientUnits="userSpaceOnUse"><stop offset="0" stop-color="#989898"/><stop offset="0.13" stop-color="#727272"/><stop offset="0.29" stop-color="#4a4a4a"/><stop offset="0.44" stop-color="#292929"/><stop offset="0.59" stop-color="#131313"/><stop offset="0.73" stop-color="#050505"/><stop offset="0.86"/></radialGradient><filter id="luminosity-noclip-39" x="70.41" y="335.69" width="46.63" height="46.84" filterUnits="userSpaceOnUse" color-interpolation-filters="sRGB"><feFlood flood-color="#fff" result="bg"/><feBlend in="SourceGraphic" in2="bg"/></filter><mask id="mask-39" x="70.41" y="335.69" width="46.63" height="46.84" maskUnits="userSpaceOnUse"><g class="cls-17"><path class="cls-18" d="M70.41,359.11a23.32,23.32,0,1,1,23.32,23.42A23.37,23.37,0,0,1,70.41,359.11Z"/></g></mask><linearGradient id="linear-gradient-35" x1="212.24" y1="254.6" x2="256.1" y2="238.63" gradientTransform="translate(327.89 605.73) rotate(180)" xlink:href="#linear-gradient-33"/><filter id="luminosity-noclip-40" x="255.08" y="345.27" width="50.43" height="50.65" filterUnits="userSpaceOnUse" color-interpolation-filters="sRGB"><feFlood flood-color="#fff" result="bg"/><feBlend in="SourceGraphic" in2="bg"/></filter><mask id="mask-40" x="255.08" y="345.27" width="50.43" height="50.65" maskUnits="userSpaceOnUse"><g class="cls-19"><path class="cls-20" d="M255.08,370.59a25.22,25.22,0,1,1,25.21,25.33A25.27,25.27,0,0,1,255.08,370.59Z"/></g></mask><linearGradient id="linear-gradient-36" x1="23.89" y1="243.76" x2="71.31" y2="226.5" gradientTransform="translate(327.89 605.73) rotate(180)" xlink:href="#linear-gradient-33"/><filter id="luminosity-noclip-41" x="-1.48" y="62.47" width="1.79" height="18.24" filterUnits="userSpaceOnUse" color-interpolation-filters="sRGB"><feFlood flood-color="#fff" result="bg"/><feBlend in="SourceGraphic" in2="bg"/></filter><mask id="mask-41" x="-1.48" y="62.47" width="1.79" height="18.24" maskUnits="userSpaceOnUse"><g class="cls-21"><path class="cls-22" d="M-1.48,62.47V80.7A24,24,0,0,0,.31,71.59,24,24,0,0,0-1.48,62.47Z"/></g></mask><linearGradient id="linear-gradient-37" x1="326.42" y1="535.21" x2="371.52" y2="518.8" gradientTransform="translate(327.89 605.73) rotate(180)" xlink:href="#linear-gradient-33"/><filter id="luminosity-noclip-42" x="79.27" y="165.99" width="44.08" height="44.28" filterUnits="userSpaceOnUse" color-interpolation-filters="sRGB"><feFlood flood-color="#fff" result="bg"/><feBlend in="SourceGraphic" in2="bg"/></filter><mask id="mask-42" x="79.27" y="165.99" width="44.08" height="44.28" maskUnits="userSpaceOnUse"><g class="cls-23"><path class="cls-24" d="M79.27,188.13a22,22,0,1,1,22,22.14A22.09,22.09,0,0,1,79.27,188.13Z"/></g></mask><linearGradient id="linear-gradient-38" x1="205.85" y1="425.14" x2="247.31" y2="410.05" gradientTransform="translate(327.89 605.73) rotate(180)" xlink:href="#linear-gradient-33"/><filter id="luminosity-noclip-43" x="166.51" y="254.26" width="53.81" height="54.05" filterUnits="userSpaceOnUse" color-interpolation-filters="sRGB"><feFlood flood-color="#fff" result="bg"/><feBlend in="SourceGraphic" in2="bg"/></filter><mask id="mask-43" x="166.51" y="254.26" width="53.81" height="54.05" maskUnits="userSpaceOnUse"><g class="cls-25"><path class="cls-26" d="M166.51,281.28a26.91,26.91,0,1,1,26.9,27A27,27,0,0,1,166.51,281.28Z"/></g></mask><linearGradient id="linear-gradient-39" x1="109.18" y1="333.65" x2="159.78" y2="315.23" gradientTransform="translate(327.89 605.73) rotate(180)" xlink:href="#linear-gradient-33"/><filter id="luminosity-noclip-44" x="220.79" y="297.15" width="44.15" height="44.34" filterUnits="userSpaceOnUse" color-interpolation-filters="sRGB"><feFlood flood-color="#fff" result="bg"/><feBlend in="SourceGraphic" in2="bg"/></filter><mask id="mask-44" x="220.79" y="297.15" width="44.15" height="44.34" maskUnits="userSpaceOnUse"><g class="cls-27"><path class="cls-28" d="M220.79,319.32a22.08,22.08,0,1,1,22.08,22.18A22.12,22.12,0,0,1,220.79,319.32Z"/></g></mask><linearGradient id="linear-gradient-40" x1="64.27" y1="293.96" x2="105.79" y2="278.85" gradientTransform="translate(327.89 605.73) rotate(180)" xlink:href="#linear-gradient-33"/><filter id="luminosity-noclip-45" x="264.65" y="298.12" width="56.33" height="56.58" filterUnits="userSpaceOnUse" color-interpolation-filters="sRGB"><feFlood flood-color="#fff" result="bg"/><feBlend in="SourceGraphic" in2="bg"/></filter><mask id="mask-45" x="264.65" y="298.12" width="56.33" height="56.58" maskUnits="userSpaceOnUse"><g class="cls-29"><path class="cls-30" d="M264.65,326.41a28.17,28.17,0,1,1,28.17,28.29A28.23,28.23,0,0,1,264.65,326.41Z"/></g></mask><linearGradient id="linear-gradient-41" x1="8.59" y1="288.95" x2="61.56" y2="269.67" gradientTransform="translate(327.89 605.73) rotate(180)" xlink:href="#linear-gradient-33"/><filter id="luminosity-noclip-46" x="316.31" y="237.56" width="16.93" height="39.41" filterUnits="userSpaceOnUse" color-interpolation-filters="sRGB"><feFlood flood-color="#fff" result="bg"/><feBlend in="SourceGraphic" in2="bg"/></filter><mask id="mask-46" x="316.31" y="237.56" width="16.93" height="39.41" maskUnits="userSpaceOnUse"><g class="cls-31"><path class="cls-32" d="M333.24,237.56a19.93,19.93,0,0,0,0,39.41Z"/></g></mask><linearGradient id="linear-gradient-42" x1="-26.48" y1="356.37" x2="10.81" y2="342.79" gradientTransform="translate(327.89 605.73) rotate(180)" xlink:href="#linear-gradient-33"/><filter id="luminosity-noclip-47" x="330.15" y="170.1" width="3.09" height="26.65" filterUnits="userSpaceOnUse" color-interpolation-filters="sRGB"><feFlood flood-color="#fff" result="bg"/><feBlend in="SourceGraphic" in2="bg"/></filter><mask id="mask-47" x="330.15" y="170.1" width="3.09" height="26.65" maskUnits="userSpaceOnUse"><g class="cls-33"><path class="cls-34" d="M333.24,170.1a30.28,30.28,0,0,0,0,26.65Z"/></g></mask><linearGradient id="linear-gradient-43" x1="-11.01" y1="388.37" x2="-0.54" y2="447.74" gradientTransform="translate(327.69 606.19) rotate(180)" gradientUnits="userSpaceOnUse"><stop offset="0" stop-color="#fff"/><stop offset="0.19" stop-color="#f8f8f8"/><stop offset="0.46" stop-color="#e3e3e3"/><stop offset="0.8" stop-color="#c1c1c1"/><stop offset="1" stop-color="#aaa"/></linearGradient><filter id="luminosity-noclip-48" x="271.98" y="0.51" width="61.26" height="72.51" filterUnits="userSpaceOnUse" color-interpolation-filters="sRGB"><feFlood flood-color="#fff" result="bg"/><feBlend in="SourceGraphic" in2="bg"/></filter><mask id="mask-48" x="271.98" y="0.51" width="61.26" height="72.51" maskUnits="userSpaceOnUse"><g class="cls-37"><path class="cls-38" d="M333.24,10.8a36,36,0,0,0-61.26,26,36,36,0,0,0,61.26,26Z"/></g></mask><linearGradient id="linear-gradient-44" x1="16.67" y1="533.13" x2="29.27" y2="604.54" xlink:href="#linear-gradient-43"/><filter id="luminosity-noclip-49" x="210.09" y="-11.67" width="59.35" height="59.61" filterUnits="userSpaceOnUse" color-interpolation-filters="sRGB"><feFlood flood-color="#fff" result="bg"/><feBlend in="SourceGraphic" in2="bg"/></filter><mask id="mask-49" x="210.09" y="-11.67" width="59.35" height="59.61" maskUnits="userSpaceOnUse"><g class="cls-39"><path class="cls-40" d="M210.09,18.13a29.67,29.67,0,1,1,29.67,29.81A29.73,29.73,0,0,1,210.09,18.13Z"/></g></mask><linearGradient id="linear-gradient-45" x1="82.75" y1="558.7" x2="93.1" y2="617.41" xlink:href="#linear-gradient-43"/><filter id="luminosity-noclip-50" x="-1.48" y="192.94" width="29.08" height="59.63" filterUnits="userSpaceOnUse" color-interpolation-filters="sRGB"><feFlood flood-color="#fff" result="bg"/><feBlend in="SourceGraphic" in2="bg"/></filter><mask id="mask-50" x="-1.48" y="192.94" width="29.08" height="59.63" maskUnits="userSpaceOnUse"><g class="cls-41"><path class="cls-42" d="M-1.48,192.94v59.63A29.76,29.76,0,0,0,27.6,222.75,29.76,29.76,0,0,0-1.48,192.94Z"/></g></mask><linearGradient id="linear-gradient-46" x1="312.23" y1="356.25" x2="322.59" y2="415" xlink:href="#linear-gradient-43"/><filter id="luminosity-noclip-51" x="-1.48" y="365.65" width="48.97" height="50.06" filterUnits="userSpaceOnUse" color-interpolation-filters="sRGB"><feFlood flood-color="#fff" result="bg"/><feBlend in="SourceGraphic" in2="bg"/></filter><mask id="mask-51" x="-1.48" y="365.65" width="48.97" height="50.06" maskUnits="userSpaceOnUse"><g class="cls-43"><path class="cls-44" d="M17.84,365.65a29.46,29.46,0,0,0-19.32,7.2v42.86h41a29.8,29.8,0,0,0-21.7-50.06Z"/></g></mask><linearGradient id="linear-gradient-47" x1="301.18" y1="182.05" x2="311.52" y2="240.71" xlink:href="#linear-gradient-43"/><filter id="luminosity-noclip-52" x="41.44" y="391.85" width="54.42" height="23.86" filterUnits="userSpaceOnUse" color-interpolation-filters="sRGB"><feFlood flood-color="#fff" result="bg"/><feBlend in="SourceGraphic" in2="bg"/></filter><mask id="mask-52" x="41.44" y="391.85" width="54.42" height="23.86" maskUnits="userSpaceOnUse"><g class="cls-45"><path class="cls-46" d="M95.86,415.71a27.45,27.45,0,0,0-54.42,0Z"/></g></mask><linearGradient id="linear-gradient-48" x1="253.6" y1="159.7" x2="263.18" y2="214.04" xlink:href="#linear-gradient-43"/><filter id="luminosity-noclip-53" x="71.63" y="256.46" width="57.03" height="57.29" filterUnits="userSpaceOnUse" color-interpolation-filters="sRGB"><feFlood flood-color="#fff" result="bg"/><feBlend in="SourceGraphic" in2="bg"/></filter><mask id="mask-53" x="71.63" y="256.46" width="57.03" height="57.29" maskUnits="userSpaceOnUse"><g class="cls-47"><path class="cls-48" d="M71.63,285.11a28.52,28.52,0,1,1,28.52,28.64A28.58,28.58,0,0,1,71.63,285.11Z"/></g></mask><linearGradient id="linear-gradient-49" x1="222.56" y1="292.87" x2="232.51" y2="349.29" xlink:href="#linear-gradient-43"/><filter id="luminosity-noclip-54" x="250.5" y="68.97" width="53.04" height="53.27" filterUnits="userSpaceOnUse" color-interpolation-filters="sRGB"><feFlood flood-color="#fff" result="bg"/><feBlend in="SourceGraphic" in2="bg"/></filter><mask id="mask-54" x="250.5" y="68.97" width="53.04" height="53.27" maskUnits="userSpaceOnUse"><g class="cls-49"><path class="cls-50" d="M250.5,95.61A26.52,26.52,0,1,1,277,122.24,26.59,26.59,0,0,1,250.5,95.61Z"/></g></mask><linearGradient id="linear-gradient-50" x1="46.04" y1="484.35" x2="55.29" y2="536.81" xlink:href="#linear-gradient-43"/><radialGradient id="radial-gradient-11" cx="403.63" cy="57.24" r="198.58" gradientTransform="translate(-0.03 -0.08)" gradientUnits="userSpaceOnUse"><stop offset="0" stop-color="#a4a4a4"/><stop offset="0.16" stop-color="#737373"/><stop offset="0.31" stop-color="#4a4a4a"/><stop offset="0.46" stop-color="#292929"/><stop offset="0.6" stop-color="#131313"/><stop offset="0.74" stop-color="#050505"/><stop offset="0.86"/></radialGradient><radialGradient id="radial-gradient-12" cx="221.16" cy="87.17" r="250.04" gradientTransform="translate(-0.03 -0.08)" gradientUnits="userSpaceOnUse"><stop offset="0" stop-color="#a4a4a4"/><stop offset="0.1" stop-color="#9b9b9b"/><stop offset="0.26" stop-color="#848484"/><stop offset="0.47" stop-color="#5d5d5d"/><stop offset="0.7" stop-color="#282828"/><stop offset="0.86"/></radialGradient><radialGradient id="radial-gradient-13" cx="3568.88" cy="2977.4" r="82.46" gradientTransform="matrix(-0.2, 0.56, -0.48, -0.17, 2453.64, -1239.31)" xlink:href="#radial-gradient-11"/><radialGradient id="radial-gradient-14" cx="1079.1" cy="-11412.65" r="132.79" gradientTransform="matrix(1.05, 1.13, -0.03, 0.03, -1199.17, -623.16)" xlink:href="#radial-gradient-11"/><radialGradient id="radial-gradient-15" cx="940.29" cy="-8986.55" r="133" gradientTransform="matrix(-1.15, 1.02, -0.03, -0.03, 1122.17, -1026.12)" xlink:href="#radial-gradient-11"/><radialGradient id="radial-gradient-16" cx="2276.26" cy="3436.1" r="61.82" gradientTransform="matrix(-1.54, 0, 0, -0.05, 3813.54, 402.12)" xlink:href="#radial-gradient-11"/><radialGradient id="radial-gradient-17" cx="2342.44" cy="-1835.14" r="61.88" gradientTransform="matrix(0, 1.54, -0.05, 0, 220.41, -3369.9)" xlink:href="#radial-gradient-11"/><radialGradient id="radial-gradient-18" cx="3281.39" cy="-181.42" r="54.42" gradientTransform="matrix(-0.73, 0.68, -0.22, -0.24, 2679.69, -2017.29)" xlink:href="#radial-gradient-11"/><radialGradient id="radial-gradient-19" cx="4940.89" cy="-4852.34" r="54.42" gradientTransform="matrix(-0.73, -0.67, 0.22, -0.24, 4998.96, 2421.15)" xlink:href="#radial-gradient-11"/><radialGradient id="radial-gradient-20" cx="3480.43" cy="-2857.16" r="24.3" gradientTransform="matrix(-1, 0, 0, -0.32, 3779.95, -679.7)" xlink:href="#radial-gradient-11"/><radialGradient id="radial-gradient-21" cx="1176.03" cy="-2950.74" r="24.31" gradientTransform="matrix(-0.05, 1, -0.32, -0.02, -582.74, -976.29)" xlink:href="#radial-gradient-11"/><radialGradient id="radial-gradient-22" cx="310.8" cy="243.91" r="87.12" gradientTransform="translate(-0.66 -1.47) scale(1 1.01)" xlink:href="#radial-gradient-11"/><radialGradient id="radial-gradient-23" cx="3873.35" cy="3444.57" r="39.44" gradientTransform="matrix(-0.2, 0.56, -0.48, -0.17, 2453.64, -1239.31)" xlink:href="#radial-gradient-11"/><radialGradient id="radial-gradient-24" cx="996.09" cy="-5499.28" r="63.51" gradientTransform="matrix(1.05, 1.13, -0.03, 0.03, -1199.17, -623.16)" xlink:href="#radial-gradient-11"/><radialGradient id="radial-gradient-25" cx="1117.29" cy="-6296.46" r="63.62" gradientTransform="matrix(-1.15, 1.02, -0.03, -0.03, 1122.17, -1026.12)" xlink:href="#radial-gradient-11"/><radialGradient id="radial-gradient-26" cx="2461.21" cy="1477.2" r="29.59" gradientTransform="matrix(-1.54, 0, 0, -0.05, 3813.54, 402.12)" xlink:href="#radial-gradient-11"/><radialGradient id="radial-gradient-27" cx="2400.14" cy="4395.76" r="29.6" gradientTransform="matrix(0, 1.54, -0.05, 0, 220.41, -3369.9)" xlink:href="#radial-gradient-11"/><radialGradient id="radial-gradient-28" cx="3552.43" cy="211.18" r="26.03" gradientTransform="matrix(-0.73, 0.68, -0.22, -0.24, 2679.69, -2017.29)" xlink:href="#radial-gradient-11"/><radialGradient id="radial-gradient-29" cx="5090.87" cy="-5652.63" r="26.03" gradientTransform="matrix(-0.73, -0.67, 0.22, -0.24, 4998.96, 2421.15)" xlink:href="#radial-gradient-11"/><radialGradient id="radial-gradient-30" cx="3765.96" cy="-3134.45" r="11.62" gradientTransform="matrix(-1, 0, 0, -0.32, 3779.95, -679.7)" xlink:href="#radial-gradient-11"/><radialGradient id="radial-gradient-31" cx="1279.5" cy="-2083.02" r="11.63" gradientTransform="matrix(-0.05, 1, -0.32, -0.02, -582.74, -976.29)" xlink:href="#radial-gradient-11"/><radialGradient id="radial-gradient-32" cx="27.06" cy="333.05" r="41.67" gradientTransform="translate(-0.66 -1.47) scale(1 1.01)" xlink:href="#radial-gradient-11"/><radialGradient id="radial-gradient-33" cx="3618.42" cy="3320.98" r="72.57" gradientTransform="matrix(-0.2, 0.56, -0.48, -0.17, 2453.64, -1239.31)" xlink:href="#radial-gradient-11"/><radialGradient id="radial-gradient-34" cx="987.16" cy="-9083.77" r="116.84" gradientTransform="matrix(1.05, 1.13, -0.03, 0.03, -1199.17, -623.16)" xlink:href="#radial-gradient-11"/><radialGradient id="radial-gradient-35" cx="1011.38" cy="-5927.94" r="117.03" gradientTransform="matrix(-1.15, 1.02, -0.03, -0.03, 1122.17, -1026.12)" xlink:href="#radial-gradient-11"/><radialGradient id="radial-gradient-36" cx="2389.4" cy="4127.32" r="54.39" gradientTransform="matrix(-1.54, 0, 0, -0.05, 3813.54, 402.12)" xlink:href="#radial-gradient-11"/><radialGradient id="radial-gradient-37" cx="2321.64" cy="1973.04" r="54.45" gradientTransform="matrix(0, 1.54, -0.05, 0, 220.41, -3369.9)" xlink:href="#radial-gradient-11"/><radialGradient id="radial-gradient-38" cx="3388.62" cy="255.77" r="47.89" gradientTransform="matrix(-0.73, 0.68, -0.22, -0.24, 2679.69, -2017.29)" xlink:href="#radial-gradient-11"/><radialGradient id="radial-gradient-39" cx="5091.15" cy="-5144.61" r="47.9" gradientTransform="matrix(-0.73, -0.67, 0.22, -0.24, 4998.96, 2421.15)" xlink:href="#radial-gradient-11"/><radialGradient id="radial-gradient-40" cx="3655.13" cy="-2759.35" r="21.39" gradientTransform="matrix(-1, 0, 0, -0.32, 3779.95, -679.7)" xlink:href="#radial-gradient-11"/><radialGradient id="radial-gradient-41" cx="1152.82" cy="-2406.93" r="21.4" gradientTransform="matrix(-0.05, 1, -0.32, -0.02, -582.74, -976.29)" xlink:href="#radial-gradient-11"/><radialGradient id="radial-gradient-42" cx="137.22" cy="212.39" r="76.67" gradientTransform="translate(-0.66 -1.47) scale(1 1.01)" xlink:href="#radial-gradient-11"/><radialGradient id="radial-gradient-43" cx="891.12" cy="-5141.81" r="210.5" gradientTransform="matrix(1.05, 1.13, -0.03, 0.03, -1199.17, -623.16)" xlink:href="#radial-gradient-11"/><radialGradient id="radial-gradient-44" cx="1130.87" cy="-2781.53" r="211.09" gradientTransform="matrix(-1.15, 1.02, -0.03, -0.03, 1122.17, -1026.12)" xlink:href="#radial-gradient-11"/><radialGradient id="radial-gradient-45" cx="2540.77" cy="3812.97" r="97.98" gradientTransform="matrix(-1.54, 0, 0, -0.05, 3813.54, 402.12)" xlink:href="#radial-gradient-11"/><radialGradient id="radial-gradient-46" cx="-95" cy="226.64" r="138.12" gradientTransform="translate(-0.66 -1.47) scale(1 1.01)" xlink:href="#radial-gradient-11"/><radialGradient id="radial-gradient-47" cx="733.21" cy="-2882.91" r="210.86" gradientTransform="matrix(-1.15, 1.02, -0.03, -0.03, 1122.17, -1026.12)" xlink:href="#radial-gradient-11"/><radialGradient id="radial-gradient-48" cx="3815.11" cy="2972.2" r="52.67" gradientTransform="matrix(-0.2, 0.56, -0.48, -0.17, 2453.64, -1239.31)" xlink:href="#radial-gradient-11"/><radialGradient id="radial-gradient-49" cx="1124.24" cy="-8586.95" r="84.79" gradientTransform="matrix(1.05, 1.13, -0.03, 0.03, -1199.17, -623.16)" xlink:href="#radial-gradient-11"/><radialGradient id="radial-gradient-50" cx="1022.9" cy="-10562.9" r="84.97" gradientTransform="matrix(-1.15, 1.02, -0.03, -0.03, 1122.17, -1026.12)" xlink:href="#radial-gradient-11"/><radialGradient id="radial-gradient-51" cx="2306.95" cy="406.15" r="39.49" gradientTransform="matrix(-1.54, 0, 0, -0.05, 3813.54, 402.12)" xlink:href="#radial-gradient-11"/><radialGradient id="radial-gradient-52" cx="2432.31" cy="-796.08" r="39.5" gradientTransform="matrix(0, 1.54, -0.05, 0, 220.41, -3369.9)" xlink:href="#radial-gradient-11"/><radialGradient id="radial-gradient-53" cx="3410.22" cy="-398.3" r="34.76" gradientTransform="matrix(-0.73, 0.68, -0.22, -0.24, 2679.69, -2017.29)" xlink:href="#radial-gradient-11"/><radialGradient id="radial-gradient-54" cx="4882.03" cy="-5267.58" r="34.76" gradientTransform="matrix(-0.73, -0.67, 0.22, -0.24, 4998.96, 2421.15)" xlink:href="#radial-gradient-11"/><radialGradient id="radial-gradient-55" cx="3527.77" cy="-3286" r="15.52" gradientTransform="matrix(-1, 0, 0, -0.32, 3779.95, -679.7)" xlink:href="#radial-gradient-11"/><radialGradient id="radial-gradient-56" cx="1317.03" cy="-2825.35" r="15.53" gradientTransform="matrix(-0.05, 1, -0.32, -0.02, -582.74, -976.29)" xlink:href="#radial-gradient-11"/><radialGradient id="radial-gradient-57" cx="263.71" cy="381.89" r="55.65" gradientTransform="translate(-0.66 -1.47) scale(1 1.01)" xlink:href="#radial-gradient-11"/><radialGradient id="radial-gradient-58" cx="19.71" cy="48.24" r="186.86" gradientTransform="translate(0.17 -14.73)" xlink:href="#radial-gradient-11"/><radialGradient id="radial-gradient-59" cx="489.46" cy="-225.72" r="354.01" gradientTransform="translate(0.17 -14.73)" xlink:href="#radial-gradient-11"/><radialGradient id="radial-gradient-60" cx="656.7" cy="398.33" r="354" gradientTransform="translate(0.17 -14.73)" xlink:href="#radial-gradient-11"/><radialGradient id="radial-gradient-61" cx="-55.68" cy="367.12" r="354" gradientTransform="translate(0.17 -14.73)" xlink:href="#radial-gradient-11"/><radialGradient id="radial-gradient-62" cx="785.36" cy="-4054.21" r="132.99" gradientTransform="matrix(-1.15, 1.02, -0.03, -0.03, 1122.17, -1026.12)" xlink:href="#radial-gradient-11"/><radialGradient id="radial-gradient-63" cx="340.02" cy="-81.63" r="87.12" gradientTransform="translate(-0.66 -1.47) scale(1 1.01)" xlink:href="#radial-gradient-11"/></defs><g class="cls-55"><g id="Layer_1" data-name="Layer 1"><rect class="cls-56" x="-1.48" y="-291.5" width="334.72" height="707.21"/><path class="cls-57" d="M333.24,95.83a175.69,175.69,0,0,0,0,305.24Z"/><g class="cls-58"><path class="cls-59" d="M333.24-240.67C205.75-223.29,107.49-113.54,107.49,19.27s98.26,242.57,225.75,260Z"/></g><g class="cls-60"><path class="cls-61" d="M-1.48-142.54V273.87A262.32,262.32,0,0,0,100.79,65.66,262.3,262.3,0,0,0-1.48-142.54Z"/></g><path class="cls-62" d="M333.24-212.14A203.21,203.21,0,0,0,268-62.67,203.19,203.19,0,0,0,333.24,86.8Z"/><g class="cls-63"><g class="cls-64"><path class="cls-65" d="M-1.48,100.05v41.59a32,32,0,0,0,7.64-20.8A32,32,0,0,0-1.48,100.05Z"/></g><g class="cls-66"><path class="cls-67" d="M184.48,129.67a33.91,33.91,0,1,1-33.91-34.06A34,34,0,0,1,184.48,129.67Z"/></g><g class="cls-68"><path class="cls-69" d="M134.25,171.59A36.41,36.41,0,1,1,97.84,135,36.49,36.49,0,0,1,134.25,171.59Z"/></g><g class="cls-70"><path class="cls-71" d="M228.91,151.81a36.21,36.21,0,1,1-36.21-36.37A36.29,36.29,0,0,1,228.91,151.81Z"/></g><g class="cls-72"><path class="cls-73" d="M317.08,248.46a32,32,0,1,1-32-32.15A32.09,32.09,0,0,1,317.08,248.46Z"/></g><g class="cls-74"><path class="cls-75" d="M333.24,74.3A33.58,33.58,0,0,0,320.89,72a34.09,34.09,0,0,0,0,68.17,33.58,33.58,0,0,0,12.35-2.35Z"/></g></g><g class="cls-76"><g class="cls-77"><path class="cls-78" d="M-1.48,85.53v57.33A30.44,30.44,0,0,0,18.58,114.2,30.46,30.46,0,0,0-1.48,85.53Z"/></g></g><g class="cls-79"><g class="cls-80"><path class="cls-81" d="M333.24,142.58a27.37,27.37,0,0,0,0,45.76Z"/></g></g><g class="cls-79"><g class="cls-82"><path class="cls-83" d="M307.36,342A31.41,31.41,0,1,1,276,310.46,31.47,31.47,0,0,1,307.36,342Z"/></g></g><g class="cls-84"><polygon class="cls-85" points="213.95 -26.21 219.46 -44.76 229.38 -28.16 248.13 -32.66 238.79 -15.73 252.03 -1.66 232.76 -1.32 227.26 17.23 217.33 0.64 198.58 5.13 207.93 -11.8 194.68 -25.87 213.95 -26.21"/><polygon class="cls-85" points="96.21 122.58 90.79 117.29 98.33 116.84 100.18 109.49 104.34 115.82 111.61 113.76 108.23 120.54 113.64 125.83 106.1 126.28 104.25 133.63 100.09 127.3 92.83 129.37 96.21 122.58"/><polygon class="cls-85" points="282.66 95.14 288.11 102.47 279.04 101.57 275.44 109.98 271.69 101.64 262.64 102.72 267.95 95.28 262.5 87.95 271.57 88.85 275.17 80.44 278.92 88.78 287.97 87.71 282.66 95.14"/><polygon class="cls-85" points="277.48 363.49 279.13 387.5 260.37 372.53 240.49 385.97 244.02 362.17 222.49 351.6 244.78 342.76 243.13 318.75 261.89 333.72 281.76 320.28 278.24 344.08 299.76 354.65 277.48 363.49"/><polygon class="cls-85" points="62.38 386.4 45.61 375.48 64.95 370.42 65.98 350.37 80.02 364.66 97.82 355.53 92.52 374.89 109.29 385.81 89.95 390.88 88.92 410.92 74.88 396.64 57.08 405.76 62.38 386.4"/><polygon class="cls-85" points="120.13 295.32 116.47 288.21 124.16 290.29 128.46 283.55 130.52 291.29 138.48 291.66 132.84 297.31 136.5 304.42 128.8 302.34 124.5 309.08 122.45 301.34 114.49 300.97 120.13 295.32"/><polygon class="cls-85" points="138.5 82.31 122.18 79.38 135.35 69.26 129.72 53.59 145.03 59.99 155.72 47.26 157.86 63.77 174.18 66.71 161.02 76.83 166.64 92.5 151.33 86.1 140.64 98.83 138.5 82.31"/><polygon class="cls-85" points="179.07 368.71 179.58 376.56 173.47 371.64 166.96 376.01 168.14 368.23 161.12 364.75 168.42 361.9 167.91 354.05 174.02 358.97 180.54 354.6 179.35 362.38 186.37 365.86 179.07 368.71"/><polygon class="cls-85" points="243.13 150.9 233.54 145.46 244.01 142.02 243.92 130.97 252.11 138.35 261.6 132.73 259.32 143.56 268.91 149 258.44 152.44 258.54 163.49 250.34 156.11 240.86 161.72 243.13 150.9"/></g><path class="cls-86" d="M63-22.35A28.55,28.55,0,0,1,34.5,6.26,28.55,28.55,0,0,1,6-22.35,28.55,28.55,0,0,1,34.5-51,28.55,28.55,0,0,1,63-22.35Z"/><path class="cls-87" d="M333.24-287.62c-4.45-1.46-9-2.77-13.56-3.88H235.37A179.92,179.92,0,0,0,98.3-116.5c0,99.42,80.24,180,179.22,180a178.53,178.53,0,0,0,55.72-8.88Z"/><path class="cls-88" d="M333.24-291.5H-1.48V211.56c144-17.47,266.77-103.91,334.72-225.45Z"/><g class="cls-89"><g class="cls-90"><path class="cls-91" d="M70.41,359.11a23.32,23.32,0,1,1,23.32,23.42A23.37,23.37,0,0,1,70.41,359.11Z"/></g></g><g class="cls-89"><g class="cls-92"><path class="cls-93" d="M255.08,370.59a25.22,25.22,0,1,1,25.21,25.33A25.27,25.27,0,0,1,255.08,370.59Z"/></g></g><g class="cls-89"><g class="cls-94"><path class="cls-95" d="M-1.48,62.47V80.7A24,24,0,0,0,.31,71.59,24,24,0,0,0-1.48,62.47Z"/></g></g><g class="cls-89"><g class="cls-96"><path class="cls-97" d="M79.27,188.13a22,22,0,1,1,22,22.14A22.09,22.09,0,0,1,79.27,188.13Z"/></g></g><g class="cls-89"><g class="cls-98"><path class="cls-99" d="M166.51,281.28a26.91,26.91,0,1,1,26.9,27A27,27,0,0,1,166.51,281.28Z"/></g></g><g class="cls-89"><g class="cls-100"><path class="cls-101" d="M220.79,319.32a22.08,22.08,0,1,1,22.08,22.18A22.12,22.12,0,0,1,220.79,319.32Z"/></g></g><g class="cls-89"><g class="cls-102"><path class="cls-103" d="M264.65,326.41a28.17,28.17,0,1,1,28.17,28.29A28.23,28.23,0,0,1,264.65,326.41Z"/></g></g><g class="cls-89"><g class="cls-104"><path class="cls-105" d="M333.24,237.56a19.93,19.93,0,0,0,0,39.41Z"/></g></g><g class="cls-106"><g class="cls-107"><g class="cls-108"><path class="cls-109" d="M333.24,170.1a30.28,30.28,0,0,0,0,26.65Z"/></g></g><g class="cls-107"><g class="cls-110"><path class="cls-111" d="M333.24,10.8a36,36,0,0,0-61.26,26,36,36,0,0,0,61.26,26Z"/></g></g><g class="cls-107"><g class="cls-112"><path class="cls-113" d="M210.09,18.13a29.67,29.67,0,1,1,29.67,29.81A29.73,29.73,0,0,1,210.09,18.13Z"/></g></g><g class="cls-107"><g class="cls-114"><path class="cls-115" d="M-1.48,192.94v59.63A29.76,29.76,0,0,0,27.6,222.75,29.76,29.76,0,0,0-1.48,192.94Z"/></g></g><g class="cls-107"><g class="cls-116"><path class="cls-117" d="M17.84,365.65a29.46,29.46,0,0,0-19.32,7.2v42.86h41a29.8,29.8,0,0,0-21.7-50.06Z"/></g></g><g class="cls-107"><g class="cls-118"><path class="cls-119" d="M95.86,415.71a27.45,27.45,0,0,0-54.42,0Z"/></g></g><g class="cls-107"><g class="cls-120"><path class="cls-121" d="M71.63,285.11a28.52,28.52,0,1,1,28.52,28.64A28.58,28.58,0,0,1,71.63,285.11Z"/></g></g><g class="cls-107"><g class="cls-122"><path class="cls-123" d="M250.5,95.61A26.52,26.52,0,1,1,277,122.24,26.59,26.59,0,0,1,250.5,95.61Z"/></g></g></g><g class="cls-84"><polygon class="cls-124" points="209.76 215.89 212.92 233.3 229.02 240.56 213.48 248.96 211.57 266.55 198.8 254.33 181.52 257.94 189.17 241.99 180.4 226.63 197.9 229 209.76 215.89"/><path class="cls-124" d="M97.33,67.82a9.74,9.74,0,1,0,9.74-9.75A9.75,9.75,0,0,0,97.33,67.82Z"/><path class="cls-124" d="M255.43,276.77l4.13-.47.46,4.07-7.32,4.83-.12-.18.21.08-.21-.08.12.18-.58.38,3.31-8.81Zm.32.42L253,284.45l6.51-4.3-.38-3.35-3.41.39Z"/><path class="cls-124" d="M248.54,274.6l3.74,1.63.52,8.78h0l0,.68-6-7.27,1.66-3.82Zm.23.59-1.37,3.15,4.91,6-.46-7.81-3.08-1.34Z"/><path class="cls-124" d="M244.84,280.88l7.84,3.94.61.31L244,286.66l-2.47-3.35,3.28-2.43Zm0,.52-2.71,2,2,2.76,7.63-1.26-7-3.51Z"/><path class="cls-124" d="M245.14,289.66l7.31-4.83.58-.38-3.31,8.81-4.12.47-.46-4.07Zm.47.23.38,3.34,3.41-.39,2.72-7.26-6.51,4.31Zm6.75-4.95.22.08-.22-.08Z"/><path class="cls-124" d="M252.35,285l0-.69,6,7.27-1.66,3.82-3.74-1.63-.52-8.77Zm1,8.47,3.08,1.34,1.37-3.15-4.91-6,.46,7.81Z"/><path class="cls-124" d="M261.12,283.37l2.47,3.35-3.28,2.43-7.83-3.93.1-.2-.1.2-.62-.31,9.26-1.54Zm-.19.49-7.64,1.27,7,3.5,2.7-2-2-2.77Z"/><path class="cls-124" d="M252.83,284.31l23.44-9a.5.5,0,0,1,.64.29h0a.5.5,0,0,1-.29.64h0l-23.44,9a.5.5,0,0,1-.64-.29h0a.49.49,0,0,1,.29-.64Z"/><path class="cls-124" d="M268.9,270.77h0a.75.75,0,0,1,1-.38h0a.75.75,0,0,1,.37,1h0l-3.79,8.42,8.21,3.53a.76.76,0,0,1,.4,1h0a.75.75,0,0,1-1,.39h0l-9.62-4.14,4.42-9.8Z"/><path class="cls-124" d="M263.6,273.61a.74.74,0,0,1,1-.36h0a.75.75,0,0,1,.37,1h0l-3.37,7.29,7.27,3.09a.75.75,0,0,1,.4,1h0a.74.74,0,0,1-1,.4h0l-8.69-3.69,4-8.7Z"/><path class="cls-124" d="M252.13,284.38l3.94-24.85a.5.5,0,0,1,.57-.41h0a.5.5,0,0,1,.42.57h0l-3.95,24.85a.49.49,0,0,1-.57.41h0a.49.49,0,0,1-.41-.57Z"/><path class="cls-124" d="M248.63,262.61a.76.76,0,0,1,1.05.17h0l5.37,7.5,7.16-5.36a.75.75,0,0,1,1.05.15h0a.75.75,0,0,1-.15,1.05h0l-8.38,6.28-6.27-8.74a.56.56,0,0,1-.09-.17h0a.76.76,0,0,1,.26-.88Z"/><path class="cls-124" d="M248.46,268.64a.74.74,0,0,1,1,.18h0l4.61,6.56,6.3-4.76a.74.74,0,0,1,1,.15h0a.75.75,0,0,1-.14,1.05h0l-7.54,5.7-5.51-7.84-.08-.16h0a.74.74,0,0,1,.27-.88Z"/><path class="cls-124" d="M251.84,285l-19.49-15.85a.5.5,0,0,1-.08-.7h0a.51.51,0,0,1,.71-.08h0l19.49,15.85a.49.49,0,0,1,.07.7h0a.5.5,0,0,1-.7.08Z"/><path class="cls-124" d="M231.29,277.17a.75.75,0,0,1,.67-.82h0l9.16-.91-1.05-8.9a.74.74,0,0,1,.65-.83h0a.75.75,0,0,1,.84.65h0l1.23,10.42-10.68,1.07h0a.77.77,0,0,1-.78-.48h0a1.18,1.18,0,0,1,0-.2Z"/><path class="cls-124" d="M236.4,280.34a.75.75,0,0,1,.68-.81h0l8-.73-1-7.85a.77.77,0,0,1,.66-.84h0a.75.75,0,0,1,.83.66h0l1.15,9.39-9.51.86a.75.75,0,0,1-.77-.48h0a.65.65,0,0,1,0-.2Z"/><path class="cls-124" d="M252.25,285.6l-23.43,9a.51.51,0,0,1-.65-.29h0a.5.5,0,0,1,.29-.65h0l23.44-9a.5.5,0,0,1,.64.29h0a.5.5,0,0,1-.29.65Z"/><path class="cls-124" d="M234.82,298.52l3.79-8.41-8.21-3.54a.74.74,0,0,1-.39-1h0a.74.74,0,0,1,1-.39h0l9.61,4.13-4.42,9.81a.74.74,0,0,1-1,.37h0a.75.75,0,0,1-.39-.41h0a.73.73,0,0,1,0-.58Z"/><path class="cls-124" d="M240.12,295.66l3.37-7.29-7.27-3.09a.75.75,0,0,1-.4-1h0a.76.76,0,0,1,1-.4h0l8.69,3.7-4,8.69h0a.74.74,0,0,1-1,.37h0a.76.76,0,0,1-.38-.41h0a.8.8,0,0,1,0-.59Z"/><path class="cls-124" d="M253,285.53,249,310.37a.49.49,0,0,1-.57.41h0a.49.49,0,0,1-.41-.57h0L252,285.37a.51.51,0,0,1,.57-.42h0a.5.5,0,0,1,.41.58Z"/><path class="cls-124" d="M242,303.78l8.38-6.27,6.26,8.74h0a.75.75,0,0,1-.17,1h0a.75.75,0,0,1-1-.17h0l-5.37-7.5L242.87,305a.74.74,0,0,1-1.05-.16h0a.51.51,0,0,1-.09-.18h0a.74.74,0,0,1,.25-.87Z"/><path class="cls-124" d="M243.77,298.09l7.53-5.7,5.51,7.83a.76.76,0,0,1-.18,1h0a.75.75,0,0,1-1-.18h0L251,294.52l-6.3,4.77a.75.75,0,0,1-1-.15h0a.81.81,0,0,1-.1-.18h0a.75.75,0,0,1,.25-.87Z"/><path class="cls-124" d="M253.24,284.88l19.49,15.85a.49.49,0,0,1,.08.7h0a.5.5,0,0,1-.7.07h0l-19.49-15.84a.51.51,0,0,1-.08-.71h0a.5.5,0,0,1,.7-.07Z"/><path class="cls-124" d="M263.53,303.54l-1.24-10.41L273,292.06h0a.74.74,0,0,1,.81.67h0a.74.74,0,0,1-.67.82h0l-9.16.92,1.05,8.89a.75.75,0,0,1-.65.84h0a.76.76,0,0,1-.79-.48h0a.58.58,0,0,1,0-.18Z"/><path class="cls-124" d="M259.5,299.14l-1.15-9.39,9.52-.87h0a.75.75,0,0,1,.81.68h0a.75.75,0,0,1-.68.82h0l-8,.72,1,7.86a.75.75,0,0,1-.65.83h0a.75.75,0,0,1-.79-.48h0a.48.48,0,0,1-.05-.17Z"/><polygon class="cls-124" points="174.63 318.13 183.73 327.15 196.31 324.75 190.56 336.22 196.72 347.46 184.07 345.52 175.3 354.88 173.23 342.21 161.65 336.75 173.02 330.86 174.63 318.13"/><path class="cls-124" d="M273.38,413.19l-1.89,2.52h5.89l8.63-1.24a1.5,1.5,0,1,0-.42-3l-6.15.87,4.49-6,10-17-13.53,14.42-4.57,6.09-1-6.34a1.5,1.5,0,0,0-1.72-1.24,1.51,1.51,0,0,0-1.24,1.73Z"/><path class="cls-124" d="M220.77,409.13h0l1.42,1.07a2.9,2.9,0,0,0,0,.72l.67,4.79h6.05l-.07-.5.66.5h17.29l2.42-3.2.46,3.2h11.63l.12-.17,0,.17h5L265,404.79a2.5,2.5,0,0,0-5,.71l.25,1.77a3.08,3.08,0,0,0-.51.51l-4.32,5.75-1-7.16a4.77,4.77,0,0,0-.13-.51l1-1.32a2.51,2.51,0,0,0-.48-3.51,2.48,2.48,0,0,0-3.5.48l-9.92,13.05L240,404.43l5.53-7.38a1.5,1.5,0,1,0-2.4-1.81l-3.72,5-1.06-7.42-4.92-19.17.6,19.79,1.08,7.55-5.22-3.76a1.5,1.5,0,0,0-2.09.35,1.51,1.51,0,0,0,.32,2.08l0,0h0l7.54,5.43,1.43,10-13.29-10a2.51,2.51,0,0,0-3,4Z"/><path class="cls-124" d="M212.23,415.71h7.85l-2.66-2a2.89,2.89,0,0,0-.44-.27l-.22-1.65a2.51,2.51,0,0,0-5,.67Z"/><polygon class="cls-124" points="196.68 415.71 196.46 415.54 179.45 405.48 190.31 415.71 196.68 415.71"/><polygon class="cls-124" points="116.92 415.71 139.65 415.71 139.95 412.93 152.15 406.34 139.51 400.65 137.03 386.98 127.72 397.27 113.99 395.41 120.87 407.47 116.92 415.71"/><polygon class="cls-124" points="333.24 394.13 328.81 388.15 333.24 375.19 333.24 374.53 319.8 379.06 308.24 370.36 308.38 384.84 296.56 393.18 310.35 397.51 314.59 411.36 322.97 399.56 333.24 399.72 333.24 394.13"/><polygon class="cls-124" points="180.58 370.67 177.7 378.21 182.26 384.87 174.22 384.45 169.31 390.86 167.22 383.06 159.63 380.36 166.38 375.96 166.59 367.88 172.86 372.96 180.58 370.67"/><polygon class="cls-124" points="253.41 -15.1 255.28 -5.83 263.96 -2.12 255.74 2.53 254.9 11.96 247.95 5.55 238.75 7.66 242.68 -0.94 237.83 -9.06 247.21 -7.98 253.41 -15.1"/><path class="cls-124" d="M84.78,415.71a9.71,9.71,0,0,0-18.19,0Z"/><ellipse class="cls-124" cx="201.45" cy="363" rx="4.87" ry="4.88"/><path class="cls-124" d="M142.09,351.41a4,4,0,1,0,3.95-4A4,4,0,0,0,142.09,351.41Z"/><path class="cls-124" d="M176.65,293.25a4.87,4.87,0,1,0,4.87-4.89A4.87,4.87,0,0,0,176.65,293.25Z"/><path class="cls-124" d="M273.14,353.66l3.5.95a1,1,0,0,0,.51-1.89l-3.48-.94,5.15-3a.89.89,0,1,0-.89-1.55l-.28.16a.54.54,0,0,0-.33-.24l-6.69-1.82,6-3.4a.68.68,0,0,0,.3-.39l.36.1h0a.9.9,0,0,0,1.09-.63.88.88,0,0,0-.62-1.1l-5.79-1.62,3.15-1.81a1,1,0,0,0-1-1.69L271,336.63l1.56-5.73a.9.9,0,0,0-1.73-.48l-.08.31a.7.7,0,0,0-.4.08l-6,3.45,1.81-6.63a.69.69,0,0,0-.06-.49l.33-.18a.9.9,0,1,0-.88-1.56l-5.24,3,.95-3.51a1,1,0,0,0-.68-1.2,1,1,0,0,0-1.2.69l-.94,3.49-3-5.17a.89.89,0,1,0-1.55.89l.16.28a.65.65,0,0,0-.24.34l-1.81,6.7-3.4-6a.6.6,0,0,0-.38-.3l.1-.37a.89.89,0,1,0-1.72-.48L245,329.56l-1.8-3.16a1,1,0,0,0-1.33-.36,1,1,0,0,0-.36,1.33l1.79,3.14L237.59,329a.9.9,0,1,0-.47,1.73l.3.08a.74.74,0,0,0,.08.41l3.44,6-6.61-1.81a.66.66,0,0,0-.48.05l-.19-.33a.9.9,0,1,0-1.56.88l3,5.25-3.5-1a1,1,0,1,0-.51,1.88l3.48.95-5.15,3a.9.9,0,0,0,.2,1.64.94.94,0,0,0,.69-.09l.27-.16a.58.58,0,0,0,.34.23l6.68,1.83-5.95,3.4a.61.61,0,0,0-.3.39l-.37-.1a.88.88,0,0,0-1.1.62.9.9,0,0,0,.62,1.1l5.79,1.62-3.14,1.81a1,1,0,0,0,.22,1.78,1,1,0,0,0,.74-.09l3.13-1.8L235.65,364a.89.89,0,1,0,1.72.48l.08-.31a.66.66,0,0,0,.41-.08l6-3.45-1.81,6.63a.64.64,0,0,0,.06.49l-.33.18a.89.89,0,0,0-.34,1.22.87.87,0,0,0,.54.42.88.88,0,0,0,.67-.08l5.24-3L247,370a1,1,0,1,0,1.88.51l.94-3.49,2.95,5.16a.89.89,0,1,0,1.55-.88l-.15-.28a.63.63,0,0,0,.23-.34l1.82-6.7,3.39,6a.65.65,0,0,0,.39.3l-.11.37a.9.9,0,0,0,.62,1.1h0a.89.89,0,0,0,1.09-.62l1.62-5.81,1.8,3.16a1,1,0,0,0,1.69-1l-1.79-3.14,5.73,1.56a.9.9,0,0,0,.47-1.73l-.31-.08a.66.66,0,0,0-.08-.41l-3.44-6,6.62,1.81a.62.62,0,0,0,.48-.06l.18.34a.91.91,0,0,0,.55.42.88.88,0,0,0,.67-.08.9.9,0,0,0,.34-1.22Zm3.09-5.41-5,2.86-7.21-2,5-2.87Zm-19.61-1.12,5-2.86,5.64,1.53-5,2.87Zm-1-1.7,1.5-5.56,5.08-2.91-1.53,5.57Zm-1.88-.52-2.86-5,1.53-5.66,2.86,5Zm-1.7,1-5.55-1.51-2.91-5.08,5.57,1.52Zm-.52,1.89-5,2.86-5.64-1.53,5-2.87Zm1,1.69L251,355,246,357.94l1.52-5.58Zm1.88.53,2.86,5-1.53,5.66-2.86-5Zm1.69-1,5.56,1.51,2.9,5.08L259,354.09Zm19.28-7.86-6.53,3.73-5.64-1.54,6.56-3.76Zm-5.07-8.84-1.51,5.57-6.48,3.73,1.52-5.58Zm-5.6-4.4-2,7.26-5.08,2.91,2-7.31Zm-9.82-2.66,2.87,5-2,7.23-2.86-5Zm-7.06.86,3.72,6.53L250,338.31l-3.76-6.57ZM239,331.19l5.56,1.51,3.71,6.5-5.56-1.52Zm-4.39,5.61,7.24,2,2.91,5.09-7.29-2ZM232,346.64l5-2.86,7.21,2-5,2.87Zm.85,7.09,6.52-3.73,5.64,1.54-6.55,3.76Zm5.06,8.84,1.51-5.58,6.49-3.71-1.53,5.57Zm5.6,4.4,2-7.26,5.08-2.91-2,7.31Zm9.82,2.66-2.86-5,2-7.23,2.85,5Zm7.07-.86-3.72-6.53,1.53-5.66,3.75,6.57Zm8.81-5.07-5.55-1.51-3.72-6.5,5.57,1.53Zm-2.84-7.6L263.43,351l7.29,2,2.86,5.09Z"/><path class="cls-124" d="M110.44,371.77a2.59,2.59,0,0,0-3.4.73l-10.92,3.1-4-2.31,7.12-2a2,2,0,0,0,.24.16,2.6,2.6,0,1,0-.91-3.61l-10.66,3-4.15-2.41,7.58-2.15a3.64,3.64,0,0,0,2.4.18,3.7,3.7,0,0,0-1.91-7.15,3.61,3.61,0,0,0-.65.24l-7.42-2,4.09-2.37,10.71,2.88,0,.07a2.6,2.6,0,1,0,1-3.55l-.13.09-7.29-2,3.94-2.28L107,353.37a2.6,2.6,0,1,0,.94-3.56,1.37,1.37,0,0,0-.2.13l-7.36-2,3.22-1.86a2.61,2.61,0,1,0-1.74-3l-3.22,1.86,1.83-7.22a2.87,2.87,0,0,0,.4-.18,2.6,2.6,0,1,0-3.66-1.19l-2.78,11-4,2.31,1.81-7.18.27-.13a2.6,2.6,0,1,0-3.58-1l-2.71,10.77L82,354.53l2.21-8.72a3.2,3.2,0,1,0-5.43-3.05,1.16,1.16,0,0,1,0,.18l-6.13,6.15v-4.74l7.83-7.85h.08a2.6,2.6,0,1,0-2.59-2.6v.17l-5.32,5.34v-4.56l8-8a2.6,2.6,0,1,0-2.6-2.6c0,.08,0,.17,0,.25l-5.37,5.39v-3.72a2.59,2.59,0,1,0-3.5,0v3.72l-5.32-5.19a2.22,2.22,0,0,0,.05-.45A2.6,2.6,0,1,0,61,326.85l8.13,7.93v4.63l-5.29-5.17a2.83,2.83,0,0,0,0-.29,2.6,2.6,0,1,0-2.66,2.59l7.93,7.74v4.81l-6-5.84a3.33,3.33,0,1,0-5.54,3.29l2.14,8-4.1-2.37-2.87-10.73.05-.07a2.59,2.59,0,1,0-3.54,1l.13.07,2,7.3-3.94-2.28L44.5,336.5a2.59,2.59,0,1,0-3.54,1,1.51,1.51,0,0,0,.22.11l2,7.37-3.21-1.86a2.59,2.59,0,0,0-4.78-.75,2.62,2.62,0,0,0,1,3.56,2.66,2.66,0,0,0,2.09.22L41.4,348l-7.14,2c-.12-.09-.24-.18-.37-.26a2.6,2.6,0,1,0,.81,3.77l10.91-3.1,4,2.32-7.11,2-.24-.17a2.6,2.6,0,1,0,.91,3.61l10.66-3,4.15,2.4-8,2.28a3.29,3.29,0,1,0,.13,6.48L58,368.44l-4.09,2.37-10.71-2.87,0-.08a2.59,2.59,0,0,0-3.54-.95,2.6,2.6,0,0,0,2.6,4.51l.13-.09,7.28,1.95-3.94,2.29-10.88-2.93a2.6,2.6,0,1,0-.95,3.56,1.1,1.1,0,0,0,.21-.14l7.35,2-3.21,1.86a2.57,2.57,0,0,0-2.09.22,2.6,2.6,0,1,0,3.83,2.81l3.21-1.86-1.82,7.21-.41.19A2.61,2.61,0,0,0,40,392a2.59,2.59,0,0,0,4.61-2.36l2.79-11,4-2.31-1.81,7.17-.26.14a2.6,2.6,0,1,0,3.57,1l2.72-10.76,4.15-2.41-1.95,7.75a3.48,3.48,0,0,0,4.28,5.38,3.43,3.43,0,0,0,1.64-2.24l5.43-5.45v4.74l-7.83,7.86h-.08a2.6,2.6,0,1,0,2.59,2.6.92.92,0,0,0,0-.16l5.33-5.34v4.56l-8,8a2.6,2.6,0,1,0,2.6,2.6,1.94,1.94,0,0,0,0-.24l5.38-5.4v3.72a2.59,2.59,0,1,0,3.5,0V396.1l5.31,5.19a3.42,3.42,0,0,0,0,.45,2.6,2.6,0,1,0,2.86-2.59l-8.13-7.92V386.6l5.29,5.16c0,.1,0,.2,0,.3a2.6,2.6,0,1,0,2.66-2.6l-7.93-7.74v-4.81l6.28,6.14a3.2,3.2,0,0,0,6-1.48,3.17,3.17,0,0,0-.79-2.1l-2.14-8,4.1,2.37L89,384.57a.43.43,0,0,1,0,.07,2.59,2.59,0,1,0,3.55-.95l-.15-.07-2-7.31,3.94,2.28,2.92,10.92a2.59,2.59,0,1,0,3.54-1l-.22-.11-2-7.38,3.22,1.87a2.59,2.59,0,0,0,4.77.74,2.6,2.6,0,0,0-1-3.55,2.55,2.55,0,0,0-2.08-.22L100.34,378l7.14-2a2.51,2.51,0,0,0,.37.27,2.6,2.6,0,0,0,2.59-4.51ZM89.1,362.62a3.78,3.78,0,0,0,0,.67L79.54,366l-5.18-3,5.12-3Zm-8.86-16.23.2.11L77.8,357l-5.18,3V354Zm-18.87.79a3,3,0,0,0,.49-.29L69.12,354v6L64,357ZM52.7,363.4a3.28,3.28,0,0,0,0-.7l9.5-2.7,5.19,3-5.13,3Zm9.64,15.36a3.72,3.72,0,0,0-.76-.41L63.94,369l5.18-3V372Zm18-.07a3.77,3.77,0,0,0-.54.34l-7.17-7v-6l5.12,3Z"/><path class="cls-124" d="M9.94,138.11l7.31-9.44,9.26,7.2-4.77,24.75-.63-.12.58-.27-.58.27.63.12-.38,1.95L9.94,138.11Zm1.5.16,9.41,20.16,4.25-22-7.62-5.92-6,7.79Z"/><polygon class="cls-124" points="-1.48 146.53 2.28 144.99 19.19 159.69 -1.48 157.9 -1.48 159.2 23.02 161.31 21.52 160.02 2.53 143.5 -1.48 145.13 -1.48 146.53"/><polygon class="cls-124" points="20.89 159.89 -1.48 167.65 -1.48 169.01 19.45 161.76 6.74 180.01 -1.48 178.88 -1.48 180.18 7.34 181.39 22.76 159.25 20.89 159.89"/><path class="cls-124" d="M15.71,185.13l4.76-24.75.38-1.94,11.42,24.45L25,192.34l-9.25-7.21Zm1.41-.53,7.62,5.93,6-7.8-9.42-20.16-4.24,22Zm3.4-23.82.59-.28-.59.28Z"/><path class="cls-124" d="M20.69,161l-1.5-1.3L46,162l4.51,11.07-10.86,4.44L20.69,161Zm19.24,15,8.93-3.65-3.72-9.14L23,161.31,39.93,176Z"/><path class="cls-124" d="M34.87,139.61l11.81,1.63-1.59,11.63-23.77,8.24-.21-.61.21.61-1.87.65,15.42-22.15Zm.6,1.38L22.76,159.24l21.16-7.32,1.31-9.58L35.47,141Z"/><path class="cls-124" d="M20.16,158.56,48.7,92.28a1.43,1.43,0,0,1,1.88-.75h0a1.44,1.44,0,0,1,.75,1.89h0L22.79,159.7a1.43,1.43,0,0,1-1.88.74h0a1.43,1.43,0,0,1-.75-1.88Z"/><path class="cls-124" d="M24.63,98.34h0a2.15,2.15,0,0,1,1.22-2.79h0a2.14,2.14,0,0,1,2.78,1.22h0l9.64,24.66L62,111.61a2.14,2.14,0,0,1,2.8,1.17h0a2.15,2.15,0,0,1-1.16,2.81h0l-27.75,11.5L24.63,98.34Z"/><path class="cls-124" d="M19.84,114.94a2.15,2.15,0,0,1,1.24-2.77h0a2.16,2.16,0,0,1,2.78,1.24h0L32.05,135l20.89-8.76a2.14,2.14,0,0,1,2.81,1.15h0a2.16,2.16,0,0,1-1.15,2.82h0l-25,10.48-9.77-25.7Z"/><path class="cls-124" d="M21.2,158.44-1.48,127.88v4.81L18.9,160.15a1.43,1.43,0,0,0,2.3-1.71Z"/><path class="cls-124" d="M1.66,98.53a2.15,2.15,0,0,0-2.41,1.85l-.73,5.54v24.7l1.05.16L3.51,101A2.15,2.15,0,0,0,1.66,98.53Z"/><path class="cls-124" d="M9.73,113.64a2.15,2.15,0,0,0-2.4,1.86L4.45,138l-5.93-1v4.36L8.15,143l3.44-26.94A2.15,2.15,0,0,0,9.73,113.64Z"/><path class="cls-124" d="M20.91,160.44a1.44,1.44,0,0,0-1.59-1.26l-20.8,2.43v2.89L19.65,162A1.43,1.43,0,0,0,20.91,160.44Z"/><path class="cls-124" d="M20.91,160.44a1.44,1.44,0,0,0-1.89.75L-1.48,208.8V216l23.13-53.71A1.44,1.44,0,0,0,20.91,160.44Z"/><path class="cls-124" d="M17.18,222.55,6,193.8l-7.43,3.07v4.66l5-2.08,9.63,24.67a2.15,2.15,0,1,0,4-1.57Z"/><path class="cls-124" d="M22,205.94h0L12.2,180.25-1.48,186v4.66l11.25-4.71L18,207.47a2.11,2.11,0,0,0,1.15,1.21A2.15,2.15,0,0,0,22,205.94Z"/><path class="cls-124" d="M22.91,160.74l43,57.92a1.43,1.43,0,0,1-.29,2h0a1.42,1.42,0,0,1-2-.3h0l-43-57.92a1.44,1.44,0,0,1,.3-2h0a1.43,1.43,0,0,1,2,.3Z"/><path class="cls-124" d="M38.3,219.94l3.94-29.83,30.46,4.62h0a2.15,2.15,0,0,1,1.8,2.45h0A2.16,2.16,0,0,1,72.05,199h0l-26.12-4L42.56,220.5a2.16,2.16,0,0,1-2.41,1.86h0a2.09,2.09,0,0,1-.57-.16h0a2.15,2.15,0,0,1-1.28-2.26Z"/><path class="cls-124" d="M30.22,204.83l3.44-26.93,27.08,4.37a2.15,2.15,0,0,1,1.78,2.47h0a2.15,2.15,0,0,1-2.46,1.78h0l-22.7-3.66-2.87,22.52a2.16,2.16,0,0,1-2.41,1.86h0a1.92,1.92,0,0,1-.58-.16h0a2.17,2.17,0,0,1-1.28-2.25Z"/><path class="cls-124" d="M22.16,158.85l71.53-8.36a1.44,1.44,0,0,1,1.59,1.26h0A1.43,1.43,0,0,1,94,153.34h0L22.49,161.7a1.42,1.42,0,0,1-1.58-1.26h0a1.43,1.43,0,0,1,1.25-1.59Z"/><path class="cls-124" d="M81,175.09,57.2,156.75l19.22-24.12h0a2.14,2.14,0,0,1,3-.34h0a2.15,2.15,0,0,1,.34,3h0L63.29,156l20.33,15.67a2.14,2.14,0,0,1,.39,3h0a2.14,2.14,0,0,1-2.55.67h0a2.4,2.4,0,0,1-.46-.27Z"/><path class="cls-124" d="M63.92,174.55,42.37,158.1l17.31-21.33h0a2.14,2.14,0,0,1,3-.31h0a2.16,2.16,0,0,1,.31,3h0L48.5,157.37l18,13.76a2.16,2.16,0,0,1,.41,3h0a2.15,2.15,0,0,1-2.56.67h0a2,2,0,0,1-.45-.26Z"/><polygon class="cls-124" points="43.33 30.07 46.49 47.49 62.59 54.74 47.05 63.14 45.14 80.73 32.37 68.52 15.09 72.13 22.74 56.18 13.97 40.82 31.47 43.18 43.33 30.07"/><polygon class="cls-124" points="211.82 26.8 223.37 35.5 237.07 30.89 232.39 44.59 241 56.23 226.55 56 218.17 67.8 213.92 53.96 200.14 49.61 211.96 41.29 211.82 26.8"/><polygon class="cls-124" points="84.16 27.11 81.28 34.66 85.84 41.31 77.8 40.89 72.89 47.3 70.8 39.5 63.2 36.8 69.96 32.4 70.17 24.32 76.44 29.41 84.16 27.11"/><polygon class="cls-124" points="260.18 218.02 266.87 227.07 278.1 226.68 271.57 235.85 275.42 246.43 264.7 243.05 255.84 249.98 255.74 238.72 246.43 232.42 257.08 228.85 260.18 218.02"/><polygon class="cls-124" points="23.98 239.95 33.08 248.97 45.66 246.56 39.91 258.03 46.08 269.27 33.42 267.34 24.66 276.69 22.59 264.03 11.01 258.56 22.38 252.67 23.98 239.95"/><path class="cls-124" d="M100.16,19.44A4.87,4.87,0,1,0,105,14.56,4.88,4.88,0,0,0,100.16,19.44Z"/><path class="cls-124" d="M45.67,7.85a4,4,0,1,0,3.95-4A4,4,0,0,0,45.67,7.85Z"/><path class="cls-124" d="M90.42,198.45a4.87,4.87,0,1,0,4.87-4.88A4.87,4.87,0,0,0,90.42,198.45Z"/><ellipse class="cls-124" cx="238.68" cy="85.37" rx="4.87" ry="4.88"/><path class="cls-124" d="M176.71,10.1l3.51,1a1,1,0,0,0,.51-1.88l-3.48-.95,5.15-3A.9.9,0,0,0,182.73,4a.89.89,0,0,0-1.22-.33l-.27.16a.67.67,0,0,0-.35-.24l-6.68-1.82,6-3.4a.7.7,0,0,0,.3-.38l.36.1h0a.89.89,0,0,0,1.09-.62.9.9,0,0,0-.62-1.11l-5.79-1.62L178.67-7A1,1,0,0,0,179-8.36a1,1,0,0,0-1.33-.36l-3.13,1.8,1.56-5.74a.9.9,0,0,0-.63-1.1.88.88,0,0,0-1.09.63l-.09.3a.69.69,0,0,0-.4.08l-6,3.45,1.8-6.63a.66.66,0,0,0-.05-.48l.33-.19a.9.9,0,0,0,.34-1.22.9.9,0,0,0-1.22-.34l-5.24,3,.95-3.51a1,1,0,0,0-.68-1.2,1,1,0,0,0-1.2.69L162-15.73l-2.95-5.17a.9.9,0,0,0-1.22-.33A.89.89,0,0,0,157.5-20l.16.28a.65.65,0,0,0-.24.34l-1.81,6.7-3.4-6a.7.7,0,0,0-.38-.3l.1-.37a.9.9,0,0,0-.62-1.1.9.9,0,0,0-1.1.62L148.59-14l-1.8-3.16a1,1,0,0,0-1.33-.36,1,1,0,0,0-.36,1.33L146.89-13l-5.72-1.56a.89.89,0,0,0-1.1.63.89.89,0,0,0,.63,1.1l.3.08a.66.66,0,0,0,.08.41l3.44,6-6.61-1.81a.64.64,0,0,0-.49.06l-.18-.34A.9.9,0,0,0,136-8.8a.9.9,0,0,0-.34,1.22l3,5.26-3.51-1a1,1,0,0,0-1.19.69,1,1,0,0,0,.68,1.2l3.48.94-5.15,3a.91.91,0,0,0-.33,1.22.89.89,0,0,0,1.22.33l.28-.15a.63.63,0,0,0,.34.23L141.14,6l-6,3.41a.63.63,0,0,0-.3.38l-.36-.1a.89.89,0,0,0-.48,1.72L139.83,13l-3.15,1.81a1,1,0,0,0-.36,1.33,1,1,0,0,0,.59.46,1,1,0,0,0,.74-.1l3.13-1.8-1.56,5.75a.9.9,0,0,0,1.73.47l.08-.31a.66.66,0,0,0,.41-.08l6-3.45-1.81,6.63a.64.64,0,0,0,.06.49l-.34.18a.9.9,0,0,0-.34,1.22.93.93,0,0,0,.55.43.88.88,0,0,0,.67-.09l5.24-3-.95,3.51a1,1,0,1,0,1.88.51l.94-3.48,3,5.16a.89.89,0,0,0,1.55-.89l-.16-.28a.65.65,0,0,0,.24-.34l1.81-6.7,3.4,6a.66.66,0,0,0,.38.3l-.1.37a.9.9,0,0,0,.62,1.1h0a.88.88,0,0,0,1.09-.62l1.62-5.81,1.8,3.16a1,1,0,0,0,.59.46,1,1,0,0,0,1.1-1.43l-1.79-3.14,5.72,1.56a.89.89,0,0,0,1.1-.63.88.88,0,0,0-.63-1.09l-.3-.09a.75.75,0,0,0-.08-.41l-3.44-6L177.44,16a.71.71,0,0,0,.48-.06l.19.33a.86.86,0,0,0,.55.42.88.88,0,0,0,.67-.08.9.9,0,0,0,.34-1.22Zm3.1-5.41-5,2.87-7.21-2,5-2.86ZM160.2,3.58l5-2.87,5.63,1.54-5,2.86Zm-1-1.7,1.51-5.57,5.07-2.91L164.3-1Zm-1.87-.52-2.86-5L156-9.31l2.85,5Zm-1.7,1L150.11.8l-2.9-5.08,5.56,1.52Zm-.52,1.89-5,2.87-5.64-1.54,5-2.87Zm1,1.69-1.51,5.58-5.07,2.91,1.52-5.58Zm1.87.53,2.87,5-1.54,5.65-2.85-5Zm1.7-1L165.24,7l2.9,5.09-5.56-1.53ZM179-2.4l-6.52,3.73L166.79-.21,173.34-4Zm-5.06-8.83-1.51,5.56L165.9-1.94l1.52-5.58Zm-5.6-4.41-2,7.26-5.08,2.91,2-7.3Zm-9.82-2.66,2.87,5-2,7.23-2.86-5Zm-7.06.86,3.72,6.53-1.54,5.66-3.75-6.57Zm-8.82,5.07,5.56,1.52,3.71,6.5L146.3-5.88Zm-4.4,5.62,7.25,2,2.9,5.09-7.29-2Zm-2.64,9.84,5-2.87,7.21,2-5,2.87Zm.84,7.08,6.53-3.73L148.56,8,142,11.74ZM141.46,19,143,13.44l6.48-3.72-1.52,5.57Zm5.6,4.4,2-7.26,5.07-2.91-2,7.31Zm9.82,2.66-2.86-5L156,13.84l2.86,5Zm7.06-.85-3.72-6.54L161.76,13l3.75,6.57Zm8.82-5.08-5.56-1.51-3.71-6.5,5.57,1.52Zm-2.85-7.6L167,7.45l7.28,2,2.87,5.09Z"/><path class="cls-124" d="M36.59,308.7a.89.89,0,0,0-1.22-.33l-.28.16a.63.63,0,0,0-.34-.23l-6.68-1.82,6-3.41a.7.7,0,0,0,.3-.38l.36.1h0a.89.89,0,0,0,1.09-.62.88.88,0,0,0-.62-1.1l-5.79-1.62,3.15-1.81a1,1,0,0,0-1-1.7l-3.13,1.8L30,292a.9.9,0,1,0-1.73-.47l-.08.31a.67.67,0,0,0-.41.07l-6,3.45,1.81-6.63a.66.66,0,0,0-.05-.48l.33-.19A.9.9,0,0,0,23,286.5l-5.24,3,.95-3.51a1,1,0,1,0-1.88-.51l-.94,3.49-2.95-5.16a.89.89,0,0,0-1.22-.33.88.88,0,0,0-.33,1.21l.16.28a.73.73,0,0,0-.24.34L9.47,292l-3.4-6a.7.7,0,0,0-.38-.3l.1-.36a.89.89,0,1,0-1.72-.49l-1.62,5.81-1.8-3.15a1,1,0,0,0-1.33-.37A1,1,0,0,0-1,288.48l1.79,3.13L-1.48,291v1.86l3.49.95,3.71,6.5L.16,298.78l-1.64-2.86v3.76l.78.21L2.2,305l-3.68-1v2l3.09.84-3.09,1.77v1.5l4.87-2.78L9,308.86l-5,2.87-5.49-1.5v1.35l3.9,1.06-3.9,2.24v2.25l4.79-2.75L1.79,320l-3.27,1.88v1.5l2.79-1.6L-.5,328.36a.68.68,0,0,0,0,.49l-.33.19a.91.91,0,0,0-.34,1.22.93.93,0,0,0,.54.42.86.86,0,0,0,.68-.09l5.24-3-1,3.51a1,1,0,1,0,1.88.52l.94-3.49,3,5.16a.89.89,0,0,0,1.55-.89l-.16-.28a.65.65,0,0,0,.24-.34l1.81-6.7,3.4,6a.64.64,0,0,0,.38.31l-.1.36a.9.9,0,0,0,.62,1.11h0a.89.89,0,0,0,1.09-.63l1.62-5.8,1.8,3.15a1,1,0,0,0,1.33.36,1,1,0,0,0,.36-1.33l-1.79-3.13L28.05,327a.89.89,0,1,0,.46-1.72l-.3-.09a.72.72,0,0,0-.08-.4l-3.44-6,6.61,1.82a.69.69,0,0,0,.49-.06l.18.33a.87.87,0,0,0,.55.43.9.9,0,0,0,1-1.31l-3-5.25,3.49.95a1,1,0,1,0,.52-1.88l-3.48-.95,5.15-2.95A.91.91,0,0,0,36.59,308.7Zm-3.77-6.44L26.29,306l-5.64-1.53,6.55-3.76Zm-18.76,6,5-2.87,5.63,1.54-5,2.86ZM22,316.72l-5.56-1.53-2.9-5.07,5.55,1.52Zm-8.9-10.18L14.61,301l5.07-2.91-1.52,5.58Zm14.65-13.11L26.24,299l-6.48,3.72,1.52-5.58Zm-10.68-1.54L22.15,289l-2,7.26-5.08,2.92Zm-4.74-5.53,2.86,5-1.95,7.23-2.86-5Zm-2.44,9,2.86,5L11.23,306l-2.87-5ZM3.7,292.84l1.57-5.62L9,293.76l-1.53,5.65ZM4,305.46l-2.91-5.08,5.56,1.53L9.53,307Zm.93,8,5.06-2.9-1.51,5.57L3.39,319ZM6,325.21.92,328.08l2-7.26L8,317.91Zm4.74,5.53-2.87-5,2-7.23,2.86,5Zm2.43-9-2.85-5,1.52-5.64,2.87,5Zm4.64,8.14-3.72-6.54,1.53-5.65,3.75,6.56Zm8.81-5.08-5.56-1.51-3.71-6.5,5.56,1.53ZM31,319.19l-7.24-2-2.9-5.08,7.28,2Zm-2.34-7-7.21-2,5-2.87,7.2,2Z"/><path class="cls-124" d="M6.66,12a2.59,2.59,0,0,0-3.54-1L3,11.12l-4.46-1.2v3.62l3.62,1,0,.07A2.59,2.59,0,1,0,6.66,12Z"/><path class="cls-124" d="M5.65,23.37a2.59,2.59,0,0,0-3.5.9l-3.63,1v3.63l4.29-1.22.25.17a2.6,2.6,0,0,0,2.59-4.51Z"/><path class="cls-124" d="M-.07,18.37a3.66,3.66,0,0,0-1.41-2v6A3.72,3.72,0,0,0-.07,18.37Z"/><path class="cls-124" d="M15,7.2a2.6,2.6,0,0,0-3.55-1l-.2.13-7.35-2L7.13,2.55a2.59,2.59,0,0,0,2.08-.22,2.61,2.61,0,0,0,.95-3.56,2.6,2.6,0,0,0-3.54-1A2.55,2.55,0,0,0,5.39-.48L2.17,1.38,4-5.83,4.4-6a2.6,2.6,0,0,0,.95-3.55,2.58,2.58,0,0,0-3.54-1A2.61,2.61,0,0,0,.74-7.21l-2.22,8.8V7.53l1.12-.65L10.53,9.81a2.57,2.57,0,0,0,3.53.94A2.6,2.6,0,0,0,15,7.2Z"/><path class="cls-124" d="M14,28.22a2.58,2.58,0,0,0-3.4.73L-.3,32l-1.18-.68v6L.81,46a2.6,2.6,0,1,0,3.55-1l-.22-.11-2-7.37,3.22,1.86a2.59,2.59,0,1,0,1.74-3L3.92,34.48l7.14-2a2.07,2.07,0,0,0,.37.27A2.6,2.6,0,0,0,14,28.22Z"/><polygon class="cls-124" points="-1.48 399.16 -1.47 399.16 1.5 403.18 -1.48 405.38 -1.48 406.2 2.41 403.31 -1.18 398.45 -1.48 398.5 -1.48 399.16"/><path class="cls-124" d="M21.74,387.16a.72.72,0,0,0-.94-.41L-1.48,395.3v1.56l22.8-8.76A.73.73,0,0,0,21.74,387.16Z"/><path class="cls-124" d="M10.11,380.15h0a1.08,1.08,0,0,1,1.43-.54h0a1.09,1.09,0,0,1,.55,1.44h0L6.58,393.26l11.93,5.13a1.1,1.1,0,0,1,.57,1.43h0a1.08,1.08,0,0,1-1.43.57h0l-14-6,6.42-14.24Z"/><path class="cls-124" d="M10.06,400.26-.49,395.78,4.39,385.2a1.09,1.09,0,1,0-2-.92l-3.9,8.45v5l10.69,4.54a1.08,1.08,0,0,0,1.42-.58A1.1,1.1,0,0,0,10.06,400.26Z"/><path class="cls-124" d="M1.92,371.89a1.08,1.08,0,0,0-1.52-.23l-1.88,1.41v2.73l3.18-2.39A1.09,1.09,0,0,0,1.92,371.89Z"/><polygon class="cls-124" points="-1.48 409.69 -1.48 411.56 3.61 415.71 5.91 415.71 -1.48 409.69"/><path class="cls-124" d="M3.08,415.71l-.14-1.15,13.3-1.33a1.09,1.09,0,0,0,1-1.19,1.07,1.07,0,0,0-1.19-1h0L.52,412.61l.37,3.1Z"/><path class="cls-124" d="M8.61,406.45l-10.09.92v2.19l10.29-.94a1.09,1.09,0,0,0-.2-2.17Z"/><path class="cls-124" d="M261.91,187.53l2.24.61a.63.63,0,1,0,.33-1.21l-2.23-.6,3.3-1.9a.58.58,0,0,0,.21-.79.57.57,0,0,0-.78-.2l-.17.1a.41.41,0,0,0-.23-.15l-4.28-1.17,3.82-2.19a.38.38,0,0,0,.19-.24l.24.07h0a.57.57,0,0,0,.3-1.11l-3.71-1,2-1.16a.62.62,0,1,0-.62-1.08l-2,1.15,1-3.68a.57.57,0,1,0-1.11-.3l-.05.2a.39.39,0,0,0-.26,0l-3.85,2.22,1.16-4.26a.39.39,0,0,0,0-.3l.21-.13a.57.57,0,1,0-.56-1l-3.36,1.89.61-2.25a.62.62,0,0,0-1.2-.33l-.61,2.24-1.89-3.31a.56.56,0,0,0-.78-.21.57.57,0,0,0-.21.78l.1.18a.44.44,0,0,0-.15.22l-1.16,4.29-2.18-3.83a.47.47,0,0,0-.25-.19l.07-.23a.57.57,0,0,0-.4-.71.57.57,0,0,0-.7.4l-1,3.72-1.16-2a.61.61,0,0,0-.85-.23.62.62,0,0,0-.23.85l1.15,2-3.67-1a.57.57,0,1,0-.3,1.11l.19,0a.47.47,0,0,0,.05.26l2.21,3.86L237,175.81a.41.41,0,0,0-.31,0l-.12-.22a.57.57,0,0,0-.78-.21.58.58,0,0,0-.22.78l1.89,3.37-2.24-.62a.64.64,0,0,0-.77.45.63.63,0,0,0,.45.76l2.23.61-3.31,1.89a.58.58,0,0,0,.14,1.06.6.6,0,0,0,.43-.06l.18-.1a.44.44,0,0,0,.22.15l4.28,1.17-3.82,2.18a.44.44,0,0,0-.19.25l-.23-.07a.57.57,0,1,0-.31,1.1l3.71,1-2,1.16a.63.63,0,0,0-.23.85.62.62,0,0,0,.38.3.65.65,0,0,0,.47-.06l2-1.16-1,3.69a.57.57,0,0,0,.41.7.58.58,0,0,0,.7-.4l.05-.2a.4.4,0,0,0,.26,0l3.85-2.21L242,196.25a.41.41,0,0,0,0,.31l-.21.12a.58.58,0,0,0-.22.78.58.58,0,0,0,.35.27.55.55,0,0,0,.43,0l3.36-1.9-.61,2.25a.62.62,0,1,0,1.2.33l.61-2.24,1.89,3.31a.58.58,0,0,0,.78.22.58.58,0,0,0,.21-.79l-.1-.17a.42.42,0,0,0,.15-.22l1.17-4.3L253.2,198a.43.43,0,0,0,.25.19l-.07.24a.59.59,0,0,0,.4.71h0a.59.59,0,0,0,.71-.4l1-3.73,1.16,2a.59.59,0,0,0,.38.29.6.6,0,0,0,.47-.06.63.63,0,0,0,.23-.86l-1.15-2,3.67,1a.57.57,0,1,0,.3-1.1l-.19-.05a.52.52,0,0,0-.05-.27l-2.21-3.86,4.24,1.16a.46.46,0,0,0,.31,0l.12.21a.58.58,0,0,0,.35.27.59.59,0,0,0,.43,0,.58.58,0,0,0,.22-.78Zm2-3.47-3.2,1.84-4.62-1.26,3.21-1.83Zm-12.57-.71,3.2-1.84,3.62,1-3.21,1.84Zm-.61-1.09,1-3.57,3.26-1.87-1,3.58Zm-1.21-.33-1.83-3.22,1-3.62,1.83,3.22Zm-1.08.61-3.57-1L243,178.31l3.57,1Zm-.34,1.2-3.2,1.84-3.61-1,3.21-1.84Zm.62,1.09-1,3.58-3.25,1.86,1-3.57Zm1.2.34,1.83,3.21-1,3.62-1.83-3.21Zm1.09-.61,3.56,1,1.86,3.26-3.57-1Zm12.35-5-4.18,2.39-3.61-1,4.2-2.41Zm-3.24-5.67-1,3.57L255,179.81l1-3.57ZM256.5,171l-1.26,4.65L252,177.55l1.27-4.68Zm-6.29-1.71,1.84,3.22-1.26,4.63L249,174Zm-4.53.56,2.39,4.18-1,3.63-2.4-4.21ZM240,173.13l3.56,1,2.38,4.16-3.56-1Zm-2.82,3.6,4.65,1.27,1.86,3.26L239.05,180Zm-1.69,6.3,3.2-1.83,4.62,1.25-3.21,1.84Zm.54,4.55,4.18-2.39,3.62,1-4.2,2.41Zm3.25,5.66,1-3.57,4.15-2.39-1,3.58Zm3.59,2.83,1.27-4.66,3.25-1.86-1.27,4.68Zm6.29,1.7-1.84-3.21,1.26-4.63,1.83,3.22Zm4.53-.55L251.34,193l1-3.62,2.41,4.21Zm5.65-3.25-3.56-1-2.38-4.17,3.56,1Zm-1.82-4.87-1.87-3.26,4.68,1.27,1.83,3.26Z"/><path class="cls-124" d="M333.24-27.07a4.05,4.05,0,0,0-3.57,4A4.08,4.08,0,0,0,331-20v5.83l-8.34-8.13a4.17,4.17,0,0,0,.07-.71,4.07,4.07,0,0,0-4.07-4.07A4.07,4.07,0,0,0,314.6-23,4.08,4.08,0,0,0,318.25-19L331-6.56V.69l-8.3-8.1a3.44,3.44,0,0,0,0-.46,4.07,4.07,0,0,0-4.07-4.07,4.07,4.07,0,0,0-4.06,4.07,4.06,4.06,0,0,0,4,4.07L331,8.34v7.53l-9.39-9.15a5.22,5.22,0,1,0-8.69,5.16l3.35,12.53-6.42-3.72-4.5-16.82a.41.41,0,0,0,.07-.11,4.07,4.07,0,1,0-5.55,1.49l.22.12,3.07,11.45L297,13.24l-4.57-17.1a4.08,4.08,0,0,0-1.5-5.56,4.05,4.05,0,0,0-5.55,1.49,4.09,4.09,0,0,0,1.49,5.57,3.59,3.59,0,0,0,.34.17l3.09,11.55-5-2.91a4.07,4.07,0,1,0-2.73,4.75l5,2.91-11.19,3.18a4.07,4.07,0,1,0,.69,5.5l17.11-4.86,6.27,3.63-11.15,3.16a3.73,3.73,0,0,0-.39-.25,4.07,4.07,0,1,0,1.44,5.66L307,25.38l6.52,3.78-12.62,3.57a5.15,5.15,0,1,0,.21,10.15l12.41,3.33-6.42,3.72-16.79-4.51-.05-.12a4.07,4.07,0,1,0-1.49,5.57,1.64,1.64,0,0,0,.22-.14l11.41,3.07-6.18,3.58L277.18,52.8a4.06,4.06,0,1,0-1.48,5.57l.33-.21,11.52,3.09-5,2.92a4,4,0,0,0-3.27.35,4.07,4.07,0,1,0,6,4.4l5-2.92-2.86,11.31a4.6,4.6,0,0,0-.64.3,4.07,4.07,0,1,0,5.74,1.85l4.37-17.28,6.26-3.63-2.84,11.26a2.27,2.27,0,0,0-.41.21,4.07,4.07,0,1,0,5.6,1.58l4.26-16.87L316.27,51,313.2,63.1a5.45,5.45,0,0,0,6.71,8.44A5.41,5.41,0,0,0,322.49,68L331,59.49v7.43L318.72,79.23h-.13a4.07,4.07,0,1,0,4.07,4.07c0-.08,0-.17,0-.25L331,74.67v7.15L318.52,94.34a4.08,4.08,0,1,0,4.07,4.07c0-.13,0-.26,0-.38L331,89.57v5.84a4.06,4.06,0,0,0,2.24,7Zm-28,65.38a5.15,5.15,0,0,0,0-1.11L320.14,33l8.13,4.7-8,4.65ZM331,51.74,320.37,62.39a5.25,5.25,0,0,0-1.19-.64l3.69-14.61L331,42.43Zm0-18.8-8-4.65-4.12-15.41a5.4,5.4,0,0,0,.77-.46L331,23.52Z"/></g><path class="cls-125" d="M333.24-128.71a198.67,198.67,0,0,0,0,371.72Z"/><path class="cls-126" d="M333.24-136.19a248.44,248.44,0,0,0-112.4-26.72c-96.93,0-180.93,55.29-222.32,136.08V201c41.39,80.79,125.39,136.08,222.32,136.08a248.56,248.56,0,0,0,112.4-26.71Z"/><path class="cls-127" d="M333.24,200.21a34.94,34.94,0,0,0-5.5-2.57c-21.78-7.86-46.83,6.4-56.05,31.94s1,52.58,22.77,60.43c13.11,4.77,27.45,1.43,38.78-7.56Z"/><path class="cls-128" d="M333.24,257.43q-14-15.36-29-31.6c-80-86.69-156.07-155-115.44-112.18,36.34,38.32,26.1,34.13,106.2,120.8,13.19,14.28,26,28.06,38.27,41.11Z"/><path class="cls-129" d="M333.24,216.82q-5.91,5.22-12.47,11.06C232.61,306.32,163.08,372.05,165.4,374.65S241,315.81,329.18,237.33l4.06-3.63Z"/><path class="cls-130" d="M333.24,241.1c-7.12,0-14.53-.09-22.17-.1-52.62,0-95.29,1.25-95.29,2.8s42.67,2.87,95.28,2.86c7.65,0,15.06,0,22.18-.07Z"/><path class="cls-131" d="M311.24,339.38c-1.55,0-2.88-42.79-3-95.54s1.14-95.57,2.68-95.56,2.87,42.76,3,95.55S312.82,339.36,311.24,339.38Z"/><path class="cls-132" d="M333.24,207.63c-9.8,4-22.09,12.21-34.05,23.23-22.06,20.32-34.64,42.61-28,49.75s29.76-3.51,51.82-23.83c3.71-3.41,7.14-6.88,10.27-10.32Z"/><path class="cls-133" d="M333.24,241.17c-3.14-3.44-6.59-6.91-10.3-10.32-22.1-20.28-45.33-30.93-51.85-23.74s6.05,29.43,28.14,49.72c11.95,11,24.22,19.12,34,23.14Z"/><path class="cls-134" d="M333.24,240.68C329.48,237.94,321,236,311.1,236c-13.39,0-24.24,3.53-24.25,7.86s10.84,7.89,24.22,7.87c9.91,0,18.41-1.92,22.17-4.67Z"/><path class="cls-135" d="M309.9,268.09c-4.31-.22-7.32-11.25-6.66-24.66s4.72-24.07,9-23.86,7.3,11.23,6.66,24.63S314.23,268.29,309.9,268.09Z"/><path class="cls-136" d="M333.24,159.07a87.62,87.62,0,1,0,0,169.53Z"/><path class="cls-137" d="M18.53,355.57C8.12,351.81,3.25,338.86,7.65,326.66s16.39-19,26.81-15.28,15.25,16.74,10.86,28.91S28.93,359.34,18.53,355.57Z"/><path class="cls-138" d="M23.2,324.86c-8.52-9.23-16.94-18-24.68-25.88v7.66c5,5.69,11.51,12.88,20.26,22.35,38.3,41.47,70.35,74.15,71.57,73S61.52,366.33,23.2,324.86Z"/><path class="cls-139" d="M89.81,276.15c-18.65,17-16.55,12.17-58.69,49.7-11.75,10.45-22.79,20.42-32.6,29.4v7.23C9.49,353,22,342.1,35.14,330.37,77.29,292.86,110.65,257.1,89.81,276.15Z"/><path class="cls-140" d="M26.48,332.12c-10.54,0-20.24.11-28,.28v2.14c7.72.18,17.42.29,28,.29,25.18,0,45.6-.57,45.58-1.32S51.65,332.14,26.48,332.12Z"/><path class="cls-141" d="M26.56,379.18c-.74,0-1.37-20.47-1.43-45.7s.55-45.71,1.28-45.71,1.38,20.45,1.42,45.7S27.32,379.17,26.56,379.18Z"/><path class="cls-142" d="M7.39,351.07c-3.16-3.42,2.86-14.08,13.41-23.8s21.65-14.83,24.78-11.39S42.73,330,32.17,339.67,10.52,354.51,7.39,351.07Z"/><path class="cls-143" d="M7.36,315.91c3.12-3.44,14.23,1.65,24.8,11.36S48.76,347.61,45.61,351s-14.23-1.64-24.79-11.35S4.21,319.34,7.36,315.91Z"/><path class="cls-144" d="M14.9,333.47c0-2.07,5.19-3.76,11.59-3.76s11.59,1.71,11.58,3.77-5.18,3.76-11.59,3.76S14.9,335.55,14.9,333.47Z"/><path class="cls-145" d="M25.92,345.08c-2.06-.11-3.5-5.38-3.18-11.8s2.26-11.51,4.31-11.41,3.49,5.37,3.18,11.78S28,345.17,25.92,345.08Z"/><path class="cls-146" d="M26.48,291.57a41.56,41.56,0,0,0-28,10.76v62.29a41.85,41.85,0,1,0,28-73.05Z"/><path class="cls-147" d="M122.36,252.77c-19.16-6.91-28.14-30.75-20-53.18s30.15-35,49.32-28.11,28.08,30.79,20,53.19S141.47,259.71,122.36,252.77Z"/><path class="cls-148" d="M254.48,338.2c-2.24,2.1-61.21-58-131.68-134.33S61.33,131.29,29.34,97.57C-6.41,59.87,60.5,120,130.93,196.28S256.76,336.1,254.48,338.2Z"/><path class="cls-149" d="M8.78,327.25c-2-2.29,59.15-60.13,136.73-129.16s73.67-60.09,108-91.43c38.35-35-23,30.75-100.57,99.75S10.83,329.58,8.78,327.25Z"/><path class="cls-150" d="M53.11,212.1c0-1.37,37.56-2.46,83.86-2.46s83.88,1.18,83.87,2.54-37.53,2.45-83.87,2.43S53.13,213.5,53.11,212.1Z"/><path class="cls-151" d="M137.12,296.21c-1.36,0-2.53-37.65-2.63-84.07s1-84.11,2.35-84.1,2.53,37.63,2.62,84.09S138.52,296.2,137.12,296.21Z"/><path class="cls-152" d="M101.84,244.49c-5.8-6.28,5.27-25.89,24.69-43.78s39.82-27.29,45.58-21-5.24,25.89-24.66,43.77S107.6,250.83,101.84,244.49Z"/><path class="cls-153" d="M101.79,179.81c5.74-6.33,26.18,3,45.63,20.89s30.54,37.44,24.74,43.74-26.17-3-45.6-20.87S96,186.12,101.79,179.81Z"/><path class="cls-154" d="M115.66,212.12c0-3.81,9.56-6.93,21.34-6.91s21.31,3.14,21.29,6.93-9.53,6.91-21.32,6.91S115.67,215.94,115.66,212.12Z"/><path class="cls-155" d="M136,233.48c-3.8-.2-6.45-9.9-5.87-21.7s4.16-21.19,7.94-21,6.41,9.88,5.85,21.67S139.76,233.65,136,233.48Z"/><path class="cls-156" d="M213.88,212.12A76.9,76.9,0,1,1,137,135,77,77,0,0,1,213.88,212.12Z"/><path class="cls-157" d="M-1.48,313.58v25.78c29.5,30.8,55,56.9,74.67,76.35H87.71C67.06,391,36.1,355.53-1.48,313.58Z"/><path class="cls-158" d="M113.93,36.47C67.2,79.17,59.77,80.36-1.48,132.2v24C103.9,57.85,171.68-16.31,113.93,36.47Z"/><path class="cls-159" d="M-1.48,223v7c34.53-.8,56.63-2,56.61-3.46S33,223.88-1.48,223Z"/><path class="cls-160" d="M-1.48,124.88V328A138.67,138.67,0,0,0,42.59,226.46,138.65,138.65,0,0,0-1.48,124.88Z"/><path class="cls-161" d="M333.24-160.82C216.5-55.76,130.48,26.32,133.73,30s88-66.69,199.51-164.53Z"/><path class="cls-162" d="M253.23,412.09c-13.9-5-20.41-22.31-14.54-38.6s21.89-25.43,35.8-20.41,20.38,22.35,14.51,38.61S267.11,417.13,253.23,412.09Z"/><path class="cls-163" d="M253.56,376.6c12.89,14,25.25,27.18,36.56,39.11h10C288,402.16,274.17,387,259.46,371.09c-51.12-55.37-99.69-99-73.74-71.65C208.94,323.92,202.39,321.24,253.56,376.6Z"/><path class="cls-164" d="M333.24,319.23c-12.18,9.95-21.38,15.92-63.2,53.17-17.47,15.54-33.77,30.29-47.93,43.31H233c13-11.27,27.36-23.88,42.4-37.27,22.41-19.95,43-39.52,57.83-54.25Z"/><path class="cls-165" d="M203,382.57c0-1,27.26-1.79,60.87-1.78s60.89.85,60.88,1.84-27.25,1.78-60.88,1.77S203,383.58,203,382.57Z"/><path class="cls-166" d="M262.39,415.71h3c.16-9.54.24-20.91.22-33.12-.07-33.72-.9-61-1.9-61s-1.76,27.33-1.71,61C262.07,394.8,262.19,406.17,262.39,415.71Z"/><path class="cls-167" d="M238.34,406.08c-4.21-4.56,3.83-18.79,17.92-31.78s28.91-19.8,33.09-15.2-3.8,18.79-17.91,31.76S242.53,410.68,238.34,406.08Z"/><path class="cls-168" d="M238.31,359.13c4.16-4.59,19,2.21,33.11,15.17s22.18,27.17,18,31.74-19-2.18-33.1-15.14S234.1,363.72,238.31,359.13Z"/><path class="cls-169" d="M248.37,382.59c0-2.77,6.94-5,15.49-5s15.47,2.28,15.46,5-6.92,5-15.48,5S248.38,385.36,248.37,382.59Z"/><path class="cls-170" d="M263.1,398.09c-2.76-.14-4.68-7.19-4.26-15.76s3-15.37,5.76-15.23,4.66,7.17,4.25,15.73S265.86,398.21,263.1,398.09Z"/><path class="cls-171" d="M308.82,415.71a55.82,55.82,0,1,0-89.95,0Z"/><path class="cls-172" d="M19.87-153.95a188.17,188.17,0,0,0-21.35,1.23V219.94a188.17,188.17,0,0,0,21.35,1.23c103.12,0,186.73-84,186.73-187.56S123-153.95,19.87-153.95Z"/><path class="cls-173" d="M333.24-291.5H139.13a359.31,359.31,0,0,0-3.58,50.6,355.47,355.47,0,0,0,197.69,319Z"/><path class="cls-174" d="M333.24,239.77A355.31,355.31,0,0,0,302.69,384.4q0,15.81,1.36,31.31h29.19Z"/><path class="cls-175" d="M-1.48,1.92V415.71H292.8a358.52,358.52,0,0,0,5.49-62.59C298.29,175.32,168.27,28-1.48,1.92Z"/><path class="cls-176" d="M333.24-84.48c-80,71.64-140.7,129.3-138.53,131.73s62-47.49,138.53-114.94Z"/><path class="cls-177" d="M333.24-170.89A87.53,87.53,0,0,0,253-83.57,87.53,87.53,0,0,0,333.24,3.75Z"/></g></g></svg>